<?xml version="1.0" encoding="UTF-8" standalone="no"?><!DOCTYPE svg PUBLIC "-//W3C//DTD SVG 1.1//EN" "http://www.w3.org/Graphics/SVG/1.1/DTD/svg11.dtd"><svg width="100%" height="100%" viewBox="0 0 605 404" version="1.1" xmlns="http://www.w3.org/2000/svg" xmlns:xlink="http://www.w3.org/1999/xlink" xml:space="preserve" xmlns:serif="http://www.serif.com/" style="fill-rule:evenodd;clip-rule:evenodd;stroke-miterlimit:10;"><g><g opacity="0.2"><path d="M289.457,252.694c-0.863,4.041 -3.541,7.412 -7.143,9.216c-1.803,0.901 -3.843,1.413 -5.999,1.413c-7.406,0 -13.432,-6.027 -13.432,-13.439c0,-3.667 1.473,-6.988 3.859,-9.413c2.436,-2.48 5.829,-4.02 9.573,-4.02c4.036,0 7.66,1.787 10.123,4.608c2.068,2.364 3.316,5.449 3.316,8.825c0,0.962 -0.104,1.903 -0.297,2.81m-0.946,-13.439c-2.969,-3.403 -7.335,-5.553 -12.196,-5.553c-4.508,0 -8.594,1.853 -11.535,4.844c-2.871,2.92 -4.647,6.923 -4.647,11.338c0,8.93 7.258,16.188 16.182,16.188c2.596,0 5.048,-0.616 7.226,-1.71c4.338,-2.167 7.571,-6.23 8.605,-11.096c0.236,-1.089 0.357,-2.222 0.357,-3.382c0,-4.069 -1.506,-7.786 -3.992,-10.629" style="fill:#18bdf7;fill-rule:nonzero;"/></g><g opacity="0.26"><path d="M288.512,239.255l-2.073,1.804c-2.463,-2.821 -6.087,-4.608 -10.123,-4.608c-3.744,0 -7.137,1.539 -9.573,4.019l-1.963,-1.924c2.942,-2.991 7.027,-4.844 11.536,-4.844c4.861,0 9.227,2.149 12.196,5.553" style="fill:#4a63fe;fill-rule:nonzero;"/></g><g opacity="0.8"><g opacity="0.2"><path d="M383.907,110.923c-0.574,2.689 -2.356,4.931 -4.752,6.131c-1.2,0.6 -2.557,0.941 -3.991,0.941c-4.928,0 -8.938,-4.01 -8.938,-8.942c0,-2.44 0.981,-4.649 2.568,-6.263c1.621,-1.649 3.878,-2.674 6.37,-2.674c2.685,0 5.096,1.189 6.735,3.066c1.375,1.573 2.206,3.625 2.206,5.871c0,0.641 -0.07,1.266 -0.198,1.87m-0.629,-8.941c-1.976,-2.265 -4.88,-3.695 -8.114,-3.695c-3,0 -5.718,1.233 -7.676,3.223c-1.909,1.943 -3.091,4.606 -3.091,7.543c0,5.942 4.829,10.771 10.767,10.771c1.726,0 3.358,-0.41 4.807,-1.138c2.886,-1.441 5.037,-4.145 5.725,-7.383c0.157,-0.724 0.238,-1.478 0.238,-2.25c0,-2.707 -1.003,-5.18 -2.656,-7.071" style="fill:#18bdf7;fill-rule:nonzero;"/></g><g opacity="0.2"><path d="M385.696,111.304c-0.688,3.238 -2.839,5.941 -5.725,7.383l-0.816,-1.632c2.396,-1.2 4.178,-3.443 4.752,-6.131l1.789,0.38Z" style="fill:#18bdf7;fill-rule:nonzero;"/></g><g opacity="0.26"><path d="M383.278,101.982l-1.379,1.2c-1.639,-1.877 -4.05,-3.066 -6.735,-3.066c-2.491,0 -4.749,1.025 -6.369,2.674l-1.306,-1.28c1.957,-1.99 4.675,-3.223 7.675,-3.223c3.234,0 6.139,1.431 8.114,3.695" style="fill:#4a63fe;fill-rule:nonzero;"/></g></g><g opacity="0.2"><path d="M256.313,301.482c-2.97,0 -5.378,-2.408 -5.378,-5.378c0,-2.971 2.408,-5.379 5.378,-5.379c2.97,0 5.378,2.408 5.378,5.379c0,2.97 -2.408,5.378 -5.378,5.378m6.911,-9.578l1.64,-1.221c-0.801,-1.261 -1.87,-2.329 -3.13,-3.13l-1.221,1.64c-0.699,-0.426 -1.466,-0.748 -2.283,-0.947l0.297,-2.025c-0.714,-0.159 -1.453,-0.25 -2.214,-0.25c-0.761,0 -1.5,0.091 -2.214,0.25l0.297,2.025c-0.817,0.199 -1.584,0.521 -2.283,0.947l-1.221,-1.64c-1.26,0.8 -2.329,1.869 -3.13,3.13l1.64,1.221c-0.426,0.699 -0.748,1.465 -0.947,2.282l-2.025,-0.296c-0.159,0.713 -0.25,1.452 -0.25,2.214c0,0.761 0.091,1.5 0.25,2.213l2.025,-0.296c0.199,0.817 0.521,1.584 0.947,2.283l-1.64,1.221c0.801,1.26 1.87,2.329 3.13,3.13l1.221,-1.64c0.699,0.426 1.466,0.748 2.283,0.946l-0.297,2.026c0.714,0.159 1.453,0.25 2.214,0.25c0.761,0 1.5,-0.091 2.214,-0.25l-0.297,-2.026c0.817,-0.198 1.584,-0.52 2.283,-0.946l1.221,1.64c1.26,-0.801 2.329,-1.87 3.13,-3.13l-1.64,-1.221c0.426,-0.699 0.748,-1.466 0.947,-2.283l2.025,0.296c0.159,-0.713 0.25,-1.452 0.25,-2.213c0,-0.762 -0.091,-1.501 -0.25,-2.214l-2.025,0.296c-0.199,-0.817 -0.521,-1.583 -0.947,-2.282" style="fill:#00a4d6;fill-rule:nonzero;"/></g><g opacity="0.15"><path d="M567.049,152.377c-4.453,0 -8.063,-3.61 -8.063,-8.063c0,-4.454 3.61,-8.064 8.063,-8.064c4.453,0 8.063,3.61 8.063,8.064c0,4.453 -3.61,8.063 -8.063,8.063m10.362,-14.36l2.458,-1.831c-1.2,-1.889 -2.803,-3.492 -4.692,-4.692l-1.831,2.458c-1.048,-0.638 -2.198,-1.121 -3.422,-1.419l0.444,-3.037c-1.07,-0.238 -2.178,-0.374 -3.319,-0.374c-1.141,0 -2.249,0.136 -3.319,0.374l0.445,3.037c-1.225,0.298 -2.375,0.781 -3.423,1.419l-1.831,-2.458c-1.889,1.2 -3.492,2.803 -4.692,4.692l2.458,1.831c-0.638,1.048 -1.12,2.197 -1.419,3.422l-3.036,-0.444c-0.239,1.069 -0.375,2.177 -0.375,3.319c0,1.141 0.136,2.249 0.375,3.318l3.036,-0.444c0.299,1.225 0.781,2.375 1.419,3.422l-2.458,1.831c1.2,1.89 2.803,3.492 4.692,4.693l1.831,-2.459c1.048,0.639 2.198,1.121 3.423,1.419l-0.445,3.037c1.07,0.239 2.178,0.375 3.319,0.375c1.141,0 2.249,-0.137 3.319,-0.375l-0.444,-3.037c1.224,-0.298 2.374,-0.78 3.422,-1.419l1.831,2.459c1.889,-1.201 3.492,-2.803 4.692,-4.693l-2.458,-1.831c0.638,-1.047 1.12,-2.197 1.419,-3.422l3.036,0.444c0.239,-1.069 0.375,-2.177 0.375,-3.318c0,-1.142 -0.136,-2.25 -0.375,-3.319l-3.036,0.444c-0.299,-1.225 -0.781,-2.374 -1.419,-3.422" style="fill:#00a4d6;fill-rule:nonzero;"/></g><g opacity="0.1"><path d="M345.703,89.781c0,-2.3 -1.867,-4.167 -4.166,-4.167c-2.3,0 -4.167,1.867 -4.167,4.167c0,2.3 1.867,4.167 4.167,4.167c2.299,0 4.166,-1.867 4.166,-4.167Z" style="fill:none;stroke:#00a4d6;stroke-width:2px;"/></g><g opacity="0.5"><path d="M507.041,104.901c0,-2.3 -1.867,-4.167 -4.167,-4.167c-2.299,0 -4.166,1.867 -4.166,4.167c0,2.3 1.867,4.167 4.166,4.167c2.3,0 4.167,-1.867 4.167,-4.167Z" style="fill:none;stroke:#00a4d6;stroke-width:0.5px;"/></g><g opacity="0.1"><path d="M402.999,135.637c0,-3.596 -2.919,-6.515 -6.515,-6.515c-3.596,0 -6.516,2.919 -6.516,6.515c0,3.596 2.92,6.515 6.516,6.515c3.596,0 6.515,-2.919 6.515,-6.515Z" style="fill:none;stroke:#00a4d6;stroke-width:3.13px;"/></g><g opacity="0.8"><g opacity="0.2"><path d="M68.522,129.895c-0.574,2.689 -2.356,4.931 -4.752,6.131c-1.2,0.6 -2.557,0.941 -3.991,0.941c-4.928,0 -8.938,-4.01 -8.938,-8.942c0,-2.44 0.981,-4.649 2.568,-6.263c1.621,-1.649 3.878,-2.674 6.37,-2.674c2.685,0 5.096,1.189 6.735,3.066c1.375,1.573 2.206,3.625 2.206,5.871c0,0.641 -0.07,1.266 -0.198,1.87m-0.629,-8.941c-1.976,-2.265 -4.88,-3.695 -8.114,-3.695c-3,0 -5.718,1.233 -7.676,3.223c-1.909,1.943 -3.091,4.606 -3.091,7.543c0,5.942 4.829,10.771 10.767,10.771c1.726,0 3.358,-0.41 4.807,-1.138c2.886,-1.441 5.037,-4.145 5.725,-7.383c0.157,-0.724 0.238,-1.478 0.238,-2.25c0,-2.707 -1.003,-5.18 -2.656,-7.071" style="fill:#18bdf7;fill-rule:nonzero;"/></g><g opacity="0.2"><path d="M70.311,130.275c-0.688,3.238 -2.839,5.941 -5.725,7.383l-0.816,-1.632c2.396,-1.2 4.178,-3.443 4.752,-6.131l1.789,0.38Z" style="fill:#18bdf7;fill-rule:nonzero;"/></g><g opacity="0.26"><path d="M67.893,120.954l-1.379,1.2c-1.639,-1.877 -4.05,-3.066 -6.735,-3.066c-2.491,0 -4.749,1.025 -6.369,2.674l-1.306,-1.28c1.957,-1.99 4.675,-3.223 7.675,-3.223c3.234,0 6.139,1.431 8.114,3.695" style="fill:#4a63fe;fill-rule:nonzero;"/></g></g><g opacity="0.15"><path d="M251.664,171.349c-4.453,0 -8.063,-3.61 -8.063,-8.063c0,-4.454 3.61,-8.064 8.063,-8.064c4.453,0 8.063,3.61 8.063,8.064c0,4.453 -3.61,8.063 -8.063,8.063m10.362,-14.36l2.458,-1.831c-1.2,-1.889 -2.803,-3.492 -4.692,-4.692l-1.831,2.458c-1.048,-0.638 -2.198,-1.121 -3.422,-1.419l0.444,-3.037c-1.07,-0.238 -2.178,-0.374 -3.319,-0.374c-1.141,0 -2.249,0.136 -3.319,0.374l0.445,3.037c-1.225,0.298 -2.375,0.781 -3.423,1.419l-1.831,-2.458c-1.889,1.2 -3.492,2.803 -4.692,4.692l2.458,1.831c-0.638,1.048 -1.12,2.197 -1.419,3.422l-3.036,-0.444c-0.239,1.069 -0.375,2.177 -0.375,3.319c0,1.141 0.136,2.249 0.375,3.318l3.036,-0.444c0.299,1.225 0.781,2.375 1.419,3.422l-2.458,1.831c1.2,1.89 2.803,3.492 4.692,4.693l1.831,-2.459c1.048,0.639 2.198,1.121 3.423,1.419l-0.445,3.037c1.07,0.239 2.178,0.375 3.319,0.375c1.141,0 2.249,-0.137 3.319,-0.375l-0.444,-3.037c1.224,-0.298 2.374,-0.78 3.422,-1.419l1.831,2.459c1.889,-1.201 3.492,-2.803 4.692,-4.693l-2.458,-1.831c0.638,-1.047 1.12,-2.197 1.419,-3.422l3.036,0.444c0.239,-1.069 0.375,-2.177 0.375,-3.318c0,-1.142 -0.136,-2.25 -0.375,-3.319l-3.036,0.444c-0.299,-1.225 -0.781,-2.374 -1.419,-3.422" style="fill:#00a4d6;fill-rule:nonzero;"/></g><g opacity="0.1"><path d="M30.318,108.752c0,-2.299 -1.866,-4.167 -4.166,-4.167c-2.3,0 -4.167,1.868 -4.167,4.167c0,2.3 1.867,4.167 4.167,4.167c2.3,0 4.166,-1.867 4.166,-4.167Z" style="fill:none;stroke:#00a4d6;stroke-width:2px;"/></g><g opacity="0.5"><path d="M191.656,123.873c0,-2.3 -1.867,-4.167 -4.167,-4.167c-2.299,0 -4.166,1.867 -4.166,4.167c0,2.3 1.867,4.167 4.166,4.167c2.3,0 4.167,-1.867 4.167,-4.167Z" style="fill:none;stroke:#00a4d6;stroke-width:0.5px;"/></g><g opacity="0.1"><path d="M87.614,154.609c0,-3.596 -2.919,-6.515 -6.515,-6.515c-3.596,0 -6.516,2.919 -6.516,6.515c0,3.595 2.92,6.515 6.516,6.515c3.596,0 6.515,-2.92 6.515,-6.515Z" style="fill:none;stroke:#00a4d6;stroke-width:3.13px;"/></g><g opacity="0.1"><path d="M588.756,232.875c0,-3.596 -2.92,-6.515 -6.516,-6.515c-3.596,0 -6.515,2.919 -6.515,6.515c0,3.595 2.919,6.515 6.515,6.515c3.596,0 6.516,-2.92 6.516,-6.515Z" style="fill:none;stroke:#00a4d6;stroke-width:3.13px;"/></g><path d="M576.529,376.269c0,1.019 -7.343,1.836 -16.406,1.836c-9.063,0 -16.406,-0.817 -16.406,-1.836c0,-0.7 3.502,-1.305 8.659,-1.613l0.266,0.998c0.106,0.413 0.488,0.711 0.923,0.711l12.055,0c0.435,0 0.817,-0.298 0.934,-0.711l0.276,-1.062c5.72,0.287 9.699,0.934 9.699,1.677" style="fill:#00a4d6;fill-rule:nonzero;"/><path d="M557.852,354.412c-0.086,-18.335 -9.296,-26.495 -9.389,-26.575l0.278,-0.322c0.094,0.081 9.448,8.354 9.536,26.895l-0.425,0.002Z" style="fill:#39a7d8;fill-rule:nonzero;"/><path d="M548.988,328.026c0,0 -1.94,0.195 -3.076,-0.701c-0.587,-0.463 -0.687,-1.315 -0.224,-1.902c0.463,-0.587 1.314,-0.687 1.901,-0.224c1.183,0.932 1.399,2.827 1.399,2.827" style="fill:#39a7d8;fill-rule:nonzero;"/><path d="M549.742,328.77c0,0 -0.177,1.941 -1.272,2.887c-0.566,0.488 -1.421,0.426 -1.909,-0.14c-0.489,-0.566 -0.426,-1.421 0.14,-1.91c1.14,-0.984 3.041,-0.837 3.041,-0.837" style="fill:#39a7d8;fill-rule:nonzero;"/><path d="M549.671,328.814c0,0 0.314,-1.924 1.473,-2.789c0.6,-0.447 1.448,-0.324 1.895,0.275c0.447,0.599 0.324,1.448 -0.275,1.895c-1.207,0.901 -3.093,0.619 -3.093,0.619" style="fill:#39a7d8;fill-rule:nonzero;"/><path d="M552.51,332.499c0,0 -0.403,1.907 -1.601,2.718c-0.619,0.419 -1.461,0.257 -1.88,-0.363c-0.419,-0.619 -0.257,-1.461 0.363,-1.88c1.247,-0.844 3.118,-0.475 3.118,-0.475" style="fill:#39a7d8;fill-rule:nonzero;"/><path d="M552.436,332.534c0,0 0.537,-1.874 1.79,-2.597c0.647,-0.374 1.476,-0.152 1.849,0.495c0.374,0.647 0.153,1.475 -0.495,1.849c-1.304,0.754 -3.144,0.253 -3.144,0.253" style="fill:#39a7d8;fill-rule:nonzero;"/><path d="M560.855,354.363c-2.122,-24.328 9.098,-36.274 9.212,-36.393l-0.408,-0.392c-0.115,0.119 -11.512,12.232 -9.368,36.834l0.564,-0.049Z" style="fill:#258baf;fill-rule:nonzero;"/><path d="M569.394,318.285c0,0 2.596,0.021 3.993,-1.305c0.723,-0.686 0.752,-1.827 0.067,-2.549c-0.686,-0.723 -1.827,-0.752 -2.55,-0.067c-1.454,1.381 -1.51,3.921 -1.51,3.921" style="fill:#258baf;fill-rule:nonzero;"/><path d="M568.485,319.365c0,0 0.471,2.553 2.039,3.674c0.81,0.579 1.936,0.391 2.515,-0.419c0.579,-0.81 0.392,-1.936 -0.418,-2.515c-1.632,-1.167 -4.136,-0.74 -4.136,-0.74" style="fill:#258baf;fill-rule:nonzero;"/><path d="M568.584,319.414c0,0 -0.651,-2.513 -2.294,-3.52c-0.85,-0.52 -1.96,-0.253 -2.48,0.596c-0.52,0.85 -0.253,1.96 0.596,2.48c1.711,1.047 4.178,0.444 4.178,0.444" style="fill:#258baf;fill-rule:nonzero;"/><path d="M565.267,324.647c0,0 0.767,2.48 2.455,3.41c0.872,0.48 1.969,0.162 2.449,-0.711c0.48,-0.872 0.162,-1.969 -0.71,-2.449c-1.757,-0.967 -4.194,-0.25 -4.194,-0.25" style="fill:#258baf;fill-rule:nonzero;"/><path d="M565.371,324.685c0,0 -0.941,-2.42 -2.691,-3.227c-0.904,-0.417 -1.976,-0.022 -2.392,0.883c-0.418,0.904 -0.023,1.975 0.882,2.392c1.821,0.84 4.201,-0.048 4.201,-0.048" style="fill:#258baf;fill-rule:nonzero;"/><path d="M562.93,330.558c0,0 0.987,2.401 2.752,3.175c0.912,0.4 1.975,-0.016 2.375,-0.928c0.4,-0.912 -0.015,-1.976 -0.927,-2.375c-1.838,-0.805 -4.2,0.128 -4.2,0.128" style="fill:#258baf;fill-rule:nonzero;"/><path d="M563.037,330.586c0,0 -1.155,-2.325 -2.97,-2.971c-0.939,-0.334 -1.97,0.155 -2.304,1.094c-0.334,0.938 0.156,1.969 1.094,2.303c1.89,0.673 4.18,-0.426 4.18,-0.426" style="fill:#258baf;fill-rule:nonzero;"/><path d="M561.314,336.301c0,0 1.374,2.203 3.243,2.671c0.966,0.242 1.945,-0.345 2.187,-1.311c0.242,-0.966 -0.345,-1.945 -1.311,-2.187c-1.945,-0.487 -4.119,0.827 -4.119,0.827" style="fill:#258baf;fill-rule:nonzero;"/><path d="M561.424,336.311c0,0 -1.527,-2.1 -3.424,-2.434c-0.981,-0.173 -1.916,0.482 -2.089,1.463c-0.173,0.98 0.482,1.916 1.463,2.088c1.975,0.348 4.05,-1.117 4.05,-1.117" style="fill:#258baf;fill-rule:nonzero;"/><path d="M560.516,342.242c0,0 1.576,2.063 3.481,2.353c0.985,0.149 1.904,-0.528 2.054,-1.512c0.149,-0.985 -0.528,-1.904 -1.512,-2.054c-1.983,-0.301 -4.023,1.213 -4.023,1.213" style="fill:#258baf;fill-rule:nonzero;"/><path d="M560.627,342.241c0,0 -1.719,-1.946 -3.639,-2.1c-0.993,-0.079 -1.862,0.662 -1.941,1.655c-0.079,0.992 0.661,1.861 1.654,1.94c1.999,0.16 3.926,-1.495 3.926,-1.495" style="fill:#258baf;fill-rule:nonzero;"/><path d="M560.26,349.422c0,0 1.576,2.063 3.481,2.353c0.985,0.149 1.904,-0.528 2.053,-1.512c0.15,-0.985 -0.527,-1.904 -1.511,-2.054c-1.984,-0.301 -4.023,1.213 -4.023,1.213" style="fill:#258baf;fill-rule:nonzero;"/><path d="M560.37,349.421c0,0 -1.718,-1.946 -3.639,-2.1c-0.993,-0.079 -1.862,0.662 -1.941,1.655c-0.079,0.992 0.661,1.861 1.654,1.94c1.999,0.16 3.926,-1.495 3.926,-1.495" style="fill:#258baf;fill-rule:nonzero;"/><path d="M547.644,356.752l4.994,18.897c0.111,0.421 0.491,0.713 0.926,0.713l12.061,0c0.435,0 0.815,-0.292 0.926,-0.713l4.994,-18.897c0.313,-1.183 -0.579,-2.341 -1.802,-2.341l-20.297,0c-1.223,0 -2.114,1.158 -1.802,2.341Z" style="fill:none;fill-rule:nonzero;stroke:#00c0d8;stroke-width:0.53px;"/><path d="M566.654,356.711l-3.35,17.722" style="fill:none;fill-rule:nonzero;stroke:#00c0d8;stroke-width:0.53px;stroke-linecap:round;"/></g></svg>