<?xml version="1.0" encoding="UTF-8" standalone="no"?><!DOCTYPE svg PUBLIC "-//W3C//DTD SVG 1.1//EN" "http://www.w3.org/Graphics/SVG/1.1/DTD/svg11.dtd"><svg width="100%" height="100%" viewBox="0 0 240 240" version="1.1" xmlns="http://www.w3.org/2000/svg" xmlns:xlink="http://www.w3.org/1999/xlink" xml:space="preserve" xmlns:serif="http://www.serif.com/" style="fill-rule:evenodd;clip-rule:evenodd;stroke-linejoin:round;stroke-miterlimit:2;"><g><g><path d="M17.736,224.866l205.785,0c3.126,0 5.682,-3.384 5.682,-7.54l0,-195.906c0,-4.156 -2.556,-7.54 -5.682,-7.54l-205.785,0c-3.126,0 -5.682,3.384 -5.682,7.54l0,195.906c0,4.156 2.556,7.54 5.682,7.54Z" style="fill:#158a96;fill-rule:nonzero;"/><path d="M17.745,224.414c-3.131,0 -5.691,-3.36 -5.691,-7.486l0,-194.503c0,-4.063 2.467,-7.376 5.54,-7.486l207.204,0.11c2.688,0.578 4.76,3.672 4.76,7.376l-211.813,0l0,201.989" style="fill:#0f6e77;fill-rule:nonzero;"/><path d="M109.453,134.903c-2.043,0 -3.846,-1.523 -4.225,-3.697c-0.425,-2.444 1.114,-4.802 3.456,-5.244c10.207,-1.953 21.517,-4.901 31.827,-8.303c2.274,-0.749 4.685,0.565 5.397,2.936c0.723,2.382 -0.54,4.912 -2.802,5.662c-10.804,3.562 -22.171,6.534 -32.872,8.573l-0.781,0.073Z" style="fill:#d0ecf3;fill-rule:nonzero;"/><path d="M124.15,147.505c-0.322,0 -0.655,-0.037 -0.988,-0.111c-2.307,-0.565 -3.754,-2.996 -3.203,-5.416c2.216,-9.912 1.722,-21.58 -1.297,-31.234c-0.747,-2.358 0.482,-4.9 2.744,-5.686c2.25,-0.774 4.696,0.515 5.431,2.874c3.502,11.152 4.053,24.638 1.504,36.097c-0.471,2.076 -2.239,3.476 -4.191,3.476Z" style="fill:#d0ecf3;fill-rule:nonzero;"/><path d="M171.788,125.323c-0.023,8.487 -0.575,17.122 -1.642,25.891c-0.414,3.402 0.447,6.473 2.262,8.008c1.32,1.13 3.042,1.327 5.132,0.578c14.892,-5.38 22.55,-16.606 21.092,-23.914c-1.435,-7.21 -11.585,-11.128 -26.844,-10.563Zm3.444,43.922c-3.054,0 -5.924,-1.032 -8.255,-3.022c-4.168,-3.549 -6.166,-9.58 -5.374,-16.151c3.02,-24.736 1.7,-48.38 -3.892,-70.291c-0.62,-2.408 0.746,-4.876 3.043,-5.515c2.296,-0.663 4.661,0.774 5.27,3.181c3.192,12.466 5.052,25.461 5.591,38.849c28.532,-1.106 34.285,11.901 35.444,17.76c2.607,13.093 -8.875,27.819 -26.718,34.255c-1.722,0.627 -3.444,0.934 -5.109,0.934Z" style="fill:#d0ecf3;fill-rule:nonzero;"/><path d="M50.127,116.836c-3.456,0 -6.246,2.334 -8.301,6.952c-2.928,6.559 -2.538,15.132 0.93,20.831c1.401,2.309 3.881,5.06 7.704,5.06c2.572,0 5.408,-1.204 8.416,-3.599c6.993,-5.527 6.717,-12.098 5.27,-16.63c-2.239,-6.952 -8.519,-12.614 -14.019,-12.614Zm0.333,41.858c-6.028,0 -11.344,-3.279 -14.961,-9.236c-5.052,-8.278 -5.649,-20.131 -1.481,-29.49c4.708,-10.575 12.114,-12.159 16.109,-12.159c9.209,0 18.75,8.081 22.183,18.779c3.226,10.072 0.149,20.045 -8.233,26.677c-4.546,3.599 -9.128,5.429 -13.617,5.429Z" style="fill:#d0ecf3;fill-rule:nonzero;"/><path d="M84.515,150.883c-5.362,0 -9.289,-2.395 -11.872,-4.803c-8.439,-7.824 -11.31,-23.987 -9.209,-35.102c0.46,-2.432 2.71,-4.041 5.052,-3.538c2.331,0.479 3.858,2.85 3.388,5.294c-1.596,8.462 0.62,21.175 6.475,26.603c2.813,2.604 6.2,3.169 10.38,1.757c2.262,-0.799 4.684,0.516 5.419,2.874c0.746,2.37 -0.482,4.913 -2.744,5.686c-2.526,0.86 -4.811,1.229 -6.889,1.229Z" style="fill:#d0ecf3;fill-rule:nonzero;"/><path d="M215.321,224.64l-19.381,0c-2.549,0 -4.707,-1.78 -5.385,-4.225l30.163,0c-0.689,2.445 -2.836,4.225 -5.397,4.225Z" style="fill:#cdcccc;fill-rule:nonzero;"/><path d="M17.764,15.434c-3.106,0 -5.646,3.354 -5.646,7.474l0,194.184c0,4.12 2.54,7.474 5.646,7.474l204.484,0c3.106,0 5.646,-3.354 5.646,-7.474l0,-194.184c0,-4.12 -2.54,-7.474 -5.646,-7.474l-204.484,0Zm204.484,224.081l-204.484,0c-9.341,0 -16.951,-10.065 -16.951,-22.423l0,-194.184c0,-12.358 7.61,-22.423 16.951,-22.423l204.484,0c9.341,0 16.939,10.065 16.939,22.423l0,194.184c0,12.358 -7.598,22.423 -16.939,22.423Z" style="fill:#fcc012;fill-rule:nonzero;"/><path d="M190.241,213.047c0,-3.254 2.515,-5.883 5.615,-5.883l19.393,0c3.1,0 5.614,2.629 5.614,5.883l0,5.184c0,3.267 -2.514,5.883 -5.614,5.883l-19.393,0c-3.1,0 -5.615,-2.616 -5.615,-5.883l0,-5.184Z" style="fill:#fce69f;fill-rule:nonzero;"/></g></g></svg>