<?xml version="1.0" encoding="UTF-8" standalone="no"?><!DOCTYPE svg PUBLIC "-//W3C//DTD SVG 1.1//EN" "http://www.w3.org/Graphics/SVG/1.1/DTD/svg11.dtd"><svg width="100%" height="100%" viewBox="0 0 750 500" version="1.1" xmlns="http://www.w3.org/2000/svg" xmlns:xlink="http://www.w3.org/1999/xlink" xml:space="preserve" xmlns:serif="http://www.serif.com/" style="fill-rule:evenodd;clip-rule:evenodd;stroke-linejoin:round;stroke-miterlimit:2;"><g><path d="M527.075,209.408c-2.511,2.411 -3.465,6.163 -1.072,9.059c2.254,2.726 6.616,3.305 9.431,1.131c6.797,-5.246 -0.288,-14.925 -7.622,-12.921c-1.357,0.371 -1.018,2.306 0.323,2.383c2.145,0.122 4.44,0.204 6.153,1.707c1.84,1.614 1.881,4.344 0.371,6.201c-3.998,4.915 -10.942,-2.323 -6.742,-6.718c0.529,-0.554 -0.289,-1.373 -0.842,-0.842Z" style="fill:#7387c4;fill-rule:nonzero;"/><path d="M597.074,217.711c0.921,3.418 1.933,6.796 2.987,10.175c0.253,0.814 1.023,1.069 1.721,0.594c2.747,-1.866 5.494,-3.7 8.096,-5.766c0.5,-0.397 0.391,-1.198 -0.103,-1.538c-3.048,-2.091 -7.162,-5.177 -11.028,-5.199c-0.984,-0.006 -1.67,1.378 -0.673,1.953c1.559,0.9 3.429,1.221 5.095,1.913c1.924,0.8 3.828,1.738 5.527,2.951c0.037,-0.561 0.075,-1.122 0.113,-1.683c-2.907,1.79 -5.645,3.798 -8.411,5.798c0.544,0.109 1.088,0.219 1.633,0.327c-1.18,-3.338 -2.391,-6.651 -3.699,-9.94c-0.277,-0.694 -1.455,-0.314 -1.258,0.415Z" style="fill:#5774b8;fill-rule:nonzero;"/><path d="M616.357,235.812c4.081,-1.955 8.261,-4.202 11.939,-6.843c1.352,-0.968 0.022,-2.86 -1.403,-2.114c-3.933,2.061 -7.765,4.721 -11.274,7.436c-0.704,0.543 -0.187,1.963 0.738,1.521Z" style="fill:#6b81c0;fill-rule:nonzero;"/><path d="M465.955,248.289c-0.854,-4.445 -1.966,-9.058 -3.583,-13.286c-0.595,-1.553 -2.762,-0.749 -2.403,0.82c0.992,4.327 2.592,8.71 4.325,12.793c0.348,0.819 1.853,0.68 1.661,-0.327Z" style="fill:#667ebe;fill-rule:nonzero;"/><path d="M478.805,208.94l-0.229,-0.204c-1.012,-0.895 -2.671,-1.071 -3.654,0c-0.995,1.083 -0.959,2.571 0,3.654l0.204,0.23c0.904,1.022 2.768,0.992 3.679,0c0.906,-0.987 1.089,-2.717 0,-3.68Z" style="fill:#2e2957;fill-rule:nonzero;"/><path d="M587.631,323.505c0,0 -42.914,9.982 -60.151,-7.255l6.169,-41.173c1.874,-11.835 0.756,-34.607 9.82,-42.685c1.754,-1.563 3.442,-2.342 3.442,-2.342c6.358,-3.07 17.669,-4.727 28.529,-4.769c13.192,-0.052 26.771,9.925 30.235,22.654l-14.279,33.401l-3.765,42.169Z" style="fill:#5774b8;fill-rule:nonzero;"/><path d="M583.388,253.066c0,0 19.224,37.027 9.678,38.999c-31.4,6.487 -49.627,11.808 -49.627,11.808l-1.601,12.194c0.469,1.843 63.53,0.249 70.998,-8.224c5.275,-5.981 12.286,-19.806 -2.629,-49.729l-4.532,-10.179l-22.287,5.131Z" style="fill:#909ace;fill-rule:nonzero;"/><path d="M547.288,233.993l-47.88,18.537l-1.499,-25.119l-10.251,-3.965c0,0 -14.864,40.317 3.724,47.824c18.59,7.507 39.537,-6.364 39.537,-6.364l16.369,-30.913Z" style="fill:#909ace;fill-rule:nonzero;"/><path d="M553.211,227.837c-16.712,5.324 -26.679,11.564 -50.206,21.376l12.081,26.941l20.824,-6.686l17.301,-41.631Z" style="fill:#5774b8;fill-rule:nonzero;"/><path d="M580.508,247.935l12.145,28.219l27.39,-5.001l-18.453,-31.78l-21.848,8.562" style="fill:#5774b8;fill-rule:nonzero;"/><path d="M566.177,267.173c5.834,-0.325 11.594,-0.072 17.424,0.005c0.508,0.007 0.48,-0.714 0,-0.77c-5.743,-0.688 -11.676,-0.412 -17.424,0.082c-0.432,0.037 -0.443,0.708 0,0.683Z" style="fill:#33316c;fill-rule:nonzero;"/><path d="M592.306,234.446c-19.708,1.779 -6.228,30.838 -1.178,39.637c0.283,0.49 1.038,0.049 0.759,-0.444c-5.02,-8.888 -18.456,-35.93 0.485,-38.714c0.27,-0.039 0.209,-0.504 -0.066,-0.479Z" style="fill:#33316c;fill-rule:nonzero;"/><path d="M537.683,251.058c-2.427,9.678 -4.055,19.742 -4.656,29.707c-0.025,0.411 0.671,0.517 0.73,0.099c1.411,-9.908 2.829,-19.788 4.417,-29.67c0.051,-0.316 -0.41,-0.46 -0.491,-0.136Z" style="fill:#33316c;fill-rule:nonzero;"/><path d="M583.813,197.38c0.302,-4.161 0.604,-8.322 0.903,-12.484c3.273,-0.921 4.973,-5.106 3.667,-8.243c-1.304,-3.137 -5.012,-4.899 -8.376,-4.419c2.123,-1.445 1.959,-4.896 0.217,-6.784c-1.742,-1.887 -4.472,-2.498 -7.039,-2.597c-2.566,-0.099 -5.164,0.212 -7.689,-0.257c-2.238,-0.415 -4.429,-1.439 -6.687,-1.154c-2.258,0.284 -4.415,2.824 -3.198,4.747c-3.256,-0.478 -6.778,-0.914 -9.671,0.657c-2.893,1.57 -4.345,6.038 -1.859,8.195c-1.643,0.837 -2.053,3.214 -1.129,4.81c0.923,1.595 2.813,2.433 4.652,2.565c1.839,0.132 3.662,-0.333 5.446,-0.795" style="fill:#2e2957;fill-rule:nonzero;"/><path d="M583.281,189.288l-0.656,8.65c0,0 7.355,0.991 5.258,7.699c-2.095,6.708 -7.128,3.774 -7.128,3.774c0,0 -1.256,17.189 -18.866,11.739c-14.014,-4.338 -13.157,-22.485 -11.378,-37.957c0.69,-5.993 6.359,-10.115 12.281,-8.961l10.586,2.062c6.119,1.192 10.376,6.777 9.903,12.994Z" style="fill:#909ace;fill-rule:nonzero;"/><path d="M582.625,205.116l-4.745,25.302c-1.068,5.701 -6.689,9.347 -12.33,8.002c-5.228,-1.249 -8.577,-6.354 -7.637,-11.647l2.575,-14.501l22.137,-7.156Z" style="fill:#909ace;fill-rule:nonzero;"/><path d="M563.148,205.401c0.027,-0.01 0.08,0.356 -0.438,0.608c-0.541,0.24 -1.403,-0.284 -1.625,-1.141c-0.288,-0.825 -0.245,-1.826 -0.199,-2.852c0.056,-1.06 0.117,-2.19 0.179,-3.376c0.3,-4.789 0.729,-8.657 0.958,-8.643c0.23,0.014 0.172,3.906 -0.128,8.695c-0.086,1.184 -0.167,2.313 -0.244,3.372c-0.092,1.037 -0.176,1.942 -0.003,2.637c0.127,0.704 0.641,1.049 0.976,0.995c0.341,-0.057 0.465,-0.339 0.524,-0.295Z" style="fill:#2e2957;fill-rule:nonzero;"/><path d="M557.435,219.384c0.078,-0.105 0.905,0.469 2.359,1.115c1.444,0.65 3.568,1.314 5.975,1.364c2.407,0.052 4.558,-0.522 6.027,-1.111c1.48,-0.584 2.332,-1.123 2.405,-1.015c0.059,0.078 -0.683,0.8 -2.164,1.552c-1.466,0.753 -3.726,1.461 -6.285,1.406c-2.56,-0.053 -4.788,-0.856 -6.22,-1.67c-1.448,-0.813 -2.16,-1.566 -2.097,-1.641Z" style="fill:#2e2957;fill-rule:nonzero;"/><path d="M560.876,208.951c0.096,-0.084 0.484,0.291 1.224,0.619c0.723,0.331 1.865,0.576 2.994,0.217c1.128,-0.367 1.914,-1.231 2.308,-1.922c0.41,-0.697 0.507,-1.228 0.636,-1.215c0.097,-0.002 0.22,0.585 -0.104,1.466c-0.305,0.86 -1.166,1.999 -2.585,2.463c-1.423,0.449 -2.786,0.026 -3.535,-0.495c-0.777,-0.528 -1.02,-1.077 -0.938,-1.133Z" style="fill:#2e2957;fill-rule:nonzero;"/><path d="M583.179,206.476c-0.01,-0.125 0.427,-0.189 0.916,-0.488c0.241,-0.155 0.454,-0.376 0.53,-0.684c0.078,-0.315 -0.01,-0.607 -0.255,-0.685c-0.202,-0.078 -0.394,-0.013 -0.439,0.062l-0.707,-0.368c0.664,-1.37 1.257,-2.314 1.429,-2.237c0.173,0.076 -0.129,1.149 -0.7,2.56l-0.706,-0.367c0.297,-0.505 0.948,-0.619 1.419,-0.428c0.342,0.114 0.647,0.458 0.727,0.784c0.099,0.332 0.058,0.654 -0.04,0.918c-0.194,0.543 -0.653,0.86 -1.007,0.977c-0.738,0.233 -1.17,0.05 -1.167,-0.044Z" style="fill:#2e2957;fill-rule:nonzero;"/><path d="M569.621,189.428c-0.089,-0.206 0.829,-0.69 1.99,-0.382c1.163,0.302 1.725,1.174 1.547,1.311c-0.171,0.164 -0.846,-0.279 -1.758,-0.506c-0.906,-0.25 -1.711,-0.196 -1.779,-0.423Z" style="fill:#2e2957;fill-rule:nonzero;"/><path d="M554.396,187.015c-0.105,-0.197 0.809,-0.798 2.087,-0.682c1.278,0.108 2.074,0.859 1.936,1.034c-0.127,0.2 -0.96,-0.125 -2.008,-0.205c-1.047,-0.103 -1.924,0.072 -2.015,-0.147Z" style="fill:#2e2957;fill-rule:nonzero;"/><path d="M582.625,197.938c-4.914,-4.792 -6.359,-12.776 -7.693,-19.509c-4.552,3.315 -10.813,4.13 -16.061,2.092c-1.648,1.935 -3.583,3.626 -5.722,4.998c-0.608,0.39 -1.33,0.769 -2.021,0.56c-0.826,-0.248 -1.193,-1.194 -1.389,-2.033c-0.628,-2.685 -0.651,-5.56 0.286,-8.154c0.936,-2.593 2.899,-4.871 5.472,-5.867c2.749,-1.064 5.842,-0.602 8.696,0.138c4.299,1.115 8.443,2.827 12.273,5.072c3.763,2.204 7.375,5.118 8.971,9.175c1.596,4.056 1.589,11.939 -2.258,13.99" style="fill:#2e2957;fill-rule:nonzero;"/><path d="M570.948,196.471c-0.229,-0.016 -0.372,-0.624 -0.32,-1.357c0.052,-0.734 0.281,-1.315 0.51,-1.298c0.229,0.016 0.372,0.624 0.32,1.357c-0.052,0.733 -0.281,1.315 -0.51,1.298Z" style="fill:#2e2957;fill-rule:nonzero;"/><path d="M556.808,194.667c-0.228,-0.017 -0.372,-0.624 -0.319,-1.358c0.052,-0.733 0.28,-1.314 0.51,-1.298c0.228,0.016 0.372,0.624 0.319,1.358c-0.052,0.733 -0.28,1.314 -0.51,1.298Z" style="fill:#2e2957;fill-rule:nonzero;"/><path d="M487.138,224.284c0,0 2.127,-13.06 4.668,-12.919c2.541,0.141 7.622,-0.001 7.622,-0.001c0,0 0.424,-12.422 1.836,-10.445c1.411,1.976 1.856,18.688 -3.59,26.707l-10.536,-3.342Z" style="fill:#909ace;fill-rule:nonzero;"/><path d="M543.439,303.873c0,0 -22.783,3.987 -22.338,6.943c0.445,2.955 2.046,5.937 2.046,5.937l20.292,-0.478l0,-12.402Z" style="fill:#909ace;fill-rule:nonzero;"/><path d="M568.167,317.469l-0.172,-3.154l-46.926,-2.87l-15.737,-42.097l-51.506,2.832l17.572,45.523l96.769,-0.234Z" style="fill:#364a9f;fill-rule:nonzero;"/><path d="M486.032,297.362c-2.819,0 -5.178,-2.204 -5.334,-5.053c-0.162,-2.948 2.096,-5.47 5.045,-5.633c0.1,-0.005 0.199,-0.008 0.298,-0.008c2.818,0 5.177,2.205 5.334,5.053c0.162,2.95 -2.097,5.471 -5.045,5.633c-0.1,0.006 -0.2,0.008 -0.298,0.008Zm0.009,-9.165c-0.071,0 -0.143,0.002 -0.214,0.006c-2.106,0.116 -3.719,1.917 -3.604,4.022c0.112,2.034 1.797,3.609 3.809,3.609c0.071,0 0.142,-0.002 0.214,-0.006c2.105,-0.116 3.718,-1.916 3.602,-4.023c-0.111,-2.033 -1.795,-3.608 -3.807,-3.608Z" style="fill:#768ac1;fill-rule:nonzero;"/><path d="M486.032,295.834c-2.012,0 -3.697,-1.575 -3.809,-3.609c-0.115,-2.105 1.498,-3.906 3.604,-4.022c0.071,-0.004 0.143,-0.006 0.214,-0.006c2.012,0 3.696,1.575 3.807,3.608c0.116,2.107 -1.497,3.907 -3.602,4.023c-0.072,0.004 -0.143,0.006 -0.214,0.006Z" style="fill:#a9b3d5;fill-rule:nonzero;"/><path d="M446.181,318.402l201.43,-2.515l11.798,6.195c0,0 -154.634,42.442 -213.228,-3.68Z" style="fill:#c1c8e6;fill-rule:nonzero;"/><path d="M603.744,169.399c-0.61,1.183 1.384,31.764 1.384,31.764l15.059,-1.252l-1.757,8.074l7.358,-8.297l14.735,-1.704l-0.895,-29.641l-35.884,1.056Z" style="fill:#c1c8e6;fill-rule:nonzero;"/><path d="M565.492,121.756c0,0 -10.377,0.519 -10.723,11.587c0,0 0.173,6.053 3.459,8.302c3.286,2.248 3.113,4.669 3.113,4.669l8.647,0c0,0 -0.346,-3.113 1.038,-4.842c1.384,-1.73 4.843,-5.362 4.323,-10.723c-0.518,-5.361 -4.496,-9.512 -9.857,-8.993Z" style="fill:#647fbf;fill-rule:nonzero;"/><path d="M561.174,149.029c3.106,-0.144 6.246,0.198 9.329,0.017c0.446,-0.025 0.597,-0.719 0.112,-0.819c-2.998,-0.619 -6.425,-0.276 -9.441,0.063c-0.461,0.052 -0.485,0.762 0,0.739Z" style="fill:#364a9f;fill-rule:nonzero;"/><path d="M562.382,151.742c1.239,-0.072 2.481,-0.123 3.721,-0.11c1.233,0.013 2.497,0.217 3.723,0.127c0.45,-0.033 0.589,-0.694 0.11,-0.819c-2.37,-0.62 -5.256,-0.262 -7.652,0.076c-0.411,0.058 -0.316,0.75 0.098,0.726Z" style="fill:#364a9f;fill-rule:nonzero;"/><path d="M563.401,153.751c1.084,0.075 2.204,0.382 3.284,0.358c0.536,-0.011 0.634,-0.766 0.125,-0.926c-1.05,-0.33 -2.321,-0.215 -3.409,-0.172c-0.479,0.02 -0.473,0.707 0,0.74Z" style="fill:#364a9f;fill-rule:nonzero;"/><path d="M563.893,146.195c0.24,-3.077 -0.798,-6.482 -1.322,-9.501c-0.302,0.128 -0.603,0.254 -0.903,0.381c0.434,0.715 1.157,2.776 2.267,2.702c1.147,-0.076 1.571,-2.122 1.734,-2.956l-0.99,0c0.221,0.95 0.25,3.242 1.741,3.025c1.264,-0.183 2.116,-2.059 2.503,-3.087c-0.343,-0.095 -0.686,-0.19 -1.029,-0.284c-0.764,3.009 -1.13,6.82 -0.365,9.853c0.138,0.545 1.003,0.437 0.986,-0.133c-0.093,-3.189 -0.54,-6.31 0.408,-9.436c0.204,-0.671 -0.784,-0.909 -1.029,-0.284c-0.14,0.355 -0.957,2.375 -1.729,2.114c-0.195,-0.065 -0.454,-1.865 -0.496,-2.041c-0.115,-0.471 -0.899,-0.507 -0.99,0c-0.112,0.619 -0.369,2.303 -1.098,1.8c-0.422,-0.291 -0.794,-1.327 -1.06,-1.771c-0.306,-0.51 -0.987,-0.15 -0.903,0.381c0.476,3.02 0.607,6.536 1.82,9.36c0.105,0.244 0.439,0.09 0.455,-0.123Z" style="fill:#364a9f;fill-rule:nonzero;"/><path d="M533.344,142.351c4.613,-1.469 9.373,-2.734 13.876,-4.51c0.36,-0.142 0.23,-0.69 -0.163,-0.592c-4.696,1.168 -9.304,2.904 -13.91,4.387c-0.452,0.145 -0.26,0.86 0.197,0.715Z" style="fill:#647fbf;fill-rule:nonzero;"/><path d="M539.014,128.623c2.905,-0.059 5.926,0.108 8.808,-0.262c0.484,-0.062 0.507,-0.732 0,-0.771c-2.897,-0.218 -5.904,0.109 -8.808,0.202c-0.533,0.017 -0.536,0.842 0,0.831Z" style="fill:#647fbf;fill-rule:nonzero;"/><path d="M552.955,123.577c-3.269,-2.848 -6.389,-6.402 -10.113,-8.656c-0.584,-0.354 -1.127,0.431 -0.703,0.912c2.856,3.237 6.863,5.643 10.223,8.338c0.413,0.33 1.006,-0.234 0.593,-0.594Z" style="fill:#647fbf;fill-rule:nonzero;"/><path d="M560.317,119.2c0.031,-0.916 -0.681,-1.796 -1.126,-2.558c-0.526,-0.901 -0.982,-1.945 -1.708,-2.699c-0.366,-0.38 -1.108,0.008 -0.92,0.536c0.352,0.986 1.076,1.862 1.648,2.736c0.486,0.743 0.955,1.783 1.791,2.166c0.144,0.066 0.309,-0.012 0.315,-0.181Z" style="fill:#647fbf;fill-rule:nonzero;"/><path d="M567.214,117.342c0.136,-4.404 0.303,-9.062 -0.21,-13.442c-0.076,-0.648 -0.974,-0.67 -1.025,0c-0.336,4.398 0.023,9.045 0.337,13.442c0.041,0.573 0.881,0.584 0.898,0Z" style="fill:#647fbf;fill-rule:nonzero;"/><path d="M572.369,119.458c1.108,-1.628 2.263,-3.26 3.105,-5.045c0.299,-0.63 -0.529,-1.113 -0.93,-0.544c-1.14,1.611 -1.995,3.419 -2.868,5.184c-0.229,0.464 0.402,0.831 0.693,0.405Z" style="fill:#647fbf;fill-rule:nonzero;"/><path d="M576.354,123.136c2.19,-0.922 4.25,-2.12 6.333,-3.257c2.055,-1.122 4.358,-2.098 6.148,-3.619c0.365,-0.31 -0.025,-0.944 -0.467,-0.8c-2.095,0.683 -3.993,2.028 -5.899,3.121c-2.159,1.237 -4.381,2.411 -6.405,3.863c-0.317,0.228 -0.135,0.871 0.29,0.692Z" style="fill:#647fbf;fill-rule:nonzero;"/><path d="M579.233,128.866c1.619,0.569 4.404,0.148 5.66,-1.059c0.44,-0.42 -0.027,-1.036 -0.549,-0.945c-0.863,0.152 -1.662,0.608 -2.522,0.809c-0.857,0.201 -1.734,0.197 -2.589,0.372c-0.444,0.091 -0.366,0.695 0,0.823Z" style="fill:#647fbf;fill-rule:nonzero;"/><path d="M579.901,136.857c6.205,1.551 12.608,3.324 18.955,4.137c0.766,0.098 0.871,-1.102 0.177,-1.309c-6.079,-1.807 -12.609,-2.745 -18.857,-3.825c-0.643,-0.11 -0.931,0.833 -0.275,0.997Z" style="fill:#647fbf;fill-rule:nonzero;"/><path d="M491.985,245.227c0.207,-1.37 0.167,-2.674 0.934,-3.881c1.528,-2.405 3.698,-1.8 5.798,-0.742c2.141,1.077 4.157,1.724 6.483,0.716c3.635,-1.572 5.34,-7.054 1.872,-9.632c-1.123,-0.835 -2.229,0.543 -2.079,1.599c0.211,1.474 0.942,3.097 -0.322,4.364c-1.689,1.694 -3.669,0.271 -5.355,-0.488c-1.82,-0.822 -3.755,-1.002 -5.633,-0.243c-3.234,1.307 -5.579,5.692 -3.012,8.654c0.363,0.418 1.228,0.229 1.314,-0.347Z" style="fill:#3b4284;fill-rule:nonzero;"/><path d="M539.735,247.877c4.366,-1.191 8.882,-2.652 12.975,-4.587c1.502,-0.712 0.534,-2.812 -1.001,-2.333c-4.24,1.32 -8.488,3.25 -12.427,5.29c-0.79,0.409 -0.535,1.899 0.453,1.63Z" style="fill:#6b81c0;fill-rule:nonzero;"/><path d="M518.07,252.422c0.92,3.417 1.933,6.796 2.987,10.175c0.253,0.814 1.023,1.069 1.721,0.594c2.747,-1.865 5.494,-3.7 8.096,-5.766c0.501,-0.397 0.391,-1.198 -0.104,-1.538c-3.047,-2.091 -7.161,-5.177 -11.027,-5.199c-0.984,-0.006 -1.67,1.378 -0.673,1.953c1.559,0.9 3.429,1.221 5.096,1.914c1.923,0.799 3.827,1.738 5.525,2.949c0.038,-0.56 0.076,-1.121 0.114,-1.681c-2.907,1.79 -5.646,3.797 -8.411,5.798c0.544,0.108 1.088,0.217 1.633,0.327c-1.18,-3.338 -2.391,-6.652 -3.699,-9.942c-0.277,-0.693 -1.455,-0.313 -1.258,0.416Z" style="fill:#d9dcef;fill-rule:nonzero;"/><path d="M524.075,286.628c4.511,0.335 9.254,0.468 13.76,0.025c1.655,-0.163 1.451,-2.422 -0.156,-2.484c-4.435,-0.174 -9.085,0.213 -13.481,0.803c-0.882,0.119 -1.146,1.58 -0.123,1.656Z" style="fill:#3b4284;fill-rule:nonzero;"/><path d="M456.77,162.475l2.555,30.488l56.143,0l3.109,10.727l3.276,-11.764l10.699,-0.621l-4.932,-27.307l-70.85,-1.523Z" style="fill:#c1c8e6;fill-rule:nonzero;"/><path d="M464.14,173.755c19.336,-0.811 38.624,-0.834 57.909,0.992c0.688,0.066 0.693,-1.026 0,-1.078c-19.255,-1.459 -38.621,-2.096 -57.909,-0.85c-0.596,0.039 -0.605,0.962 0,0.936Z" style="fill:#fff;fill-rule:nonzero;"/><path d="M465.268,179.774c19.336,-0.812 38.623,-0.835 57.909,0.991c0.687,0.065 0.692,-1.026 0,-1.078c-19.255,-1.459 -38.622,-2.096 -57.909,-0.849c-0.597,0.038 -0.606,0.961 0,0.936Z" style="fill:#fff;fill-rule:nonzero;"/><path d="M465.374,184.808c12.988,0.516 25.823,-0.546 38.803,0.654c0.687,0.063 0.694,-1.031 0,-1.079c-12.962,-0.885 -25.827,-0.357 -38.803,-0.511c-0.605,-0.008 -0.601,0.912 0,0.936Z" style="fill:#fff;fill-rule:nonzero;"/><path d="M612.629,184.394c0,0 5.317,11.937 6.799,11.312c1.483,-0.626 15.212,-9.143 15.212,-9.143c0,0 -5.627,-10.688 -6.799,-11.311c-1.171,-0.624 -15.212,9.142 -15.212,9.142Z" style="fill:#fff;fill-rule:nonzero;"/><path d="M627.841,175.252c0.216,0.08 -1.419,4.951 -3.648,10.877l-0.081,0.214l-0.12,0.319l-0.335,-0.055c-6.151,-1.004 -11.064,-1.989 -11.028,-2.213c0.037,-0.223 5.009,0.397 11.161,1.392l-0.456,0.264l0.081,-0.213c2.229,-5.927 4.212,-10.666 4.426,-10.585Z" style="fill:#2e2957;fill-rule:nonzero;"/><path d="M617.681,194.304c-0.224,-0.05 0.122,-2.029 0.774,-4.419c0.651,-2.391 1.357,-4.271 1.575,-4.201c0.219,0.071 -0.127,2.049 -0.774,4.42c-0.645,2.369 -1.351,4.25 -1.575,4.2Z" style="fill:#2e2957;fill-rule:nonzero;"/><path d="M633.734,184.188c-0.036,0.227 -1.963,0.11 -4.304,-0.26c-2.341,-0.371 -4.209,-0.856 -4.173,-1.083c0.037,-0.226 1.962,-0.11 4.304,0.261c2.34,0.371 4.208,0.856 4.173,1.082Z" style="fill:#2e2957;fill-rule:nonzero;"/></g></svg>