<?xml version="1.0" encoding="UTF-8" standalone="no"?><!DOCTYPE svg PUBLIC "-//W3C//DTD SVG 1.1//EN" "http://www.w3.org/Graphics/SVG/1.1/DTD/svg11.dtd"><svg width="100%" height="100%" viewBox="0 0 574 574" version="1.1" xmlns="http://www.w3.org/2000/svg" xmlns:xlink="http://www.w3.org/1999/xlink" xml:space="preserve" xmlns:serif="http://www.serif.com/" style="fill-rule:evenodd;clip-rule:evenodd;stroke-linejoin:round;stroke-miterlimit:1.41421;"><g><path d="M9.456,499.237l0,-480.134c0,-10.247 5.603,-18.562 12.513,-18.562l530.064,0c6.916,0 12.511,8.315 12.511,18.562l0,480.134l-555.088,0Z" style="fill:#2b2d2c;"/><path d="M552.033,573.459l-530.064,0c-6.91,0 -12.513,-8.303 -12.513,-18.55l0,-55.672l555.088,0l0,55.672c0,10.247 -5.595,18.55 -12.511,18.55Z" style="fill:#fef4f6;"/><rect x="26.657" y="33.017" width="520.686" height="433.744" style="fill:#fff;"/><rect x="26.657" y="428.207" width="520.686" height="38.554" style="fill:#55c5cf;"/><rect x="150.838" y="47.299" width="275.661" height="20.928" style="fill:#6b8bc6;"/><rect x="207.124" y="74.771" width="163.09" height="20.931" style="fill:#6b8bc6;"/><rect x="48.088" y="250.1" width="83.751" height="160.621" style="fill:#55c5cf;"/><rect x="49.935" y="114.874" width="287.134" height="123.115" style="fill:#43525a;"/><path d="M317.867,167.741c-0.412,-0.632 -0.315,-1.537 0.221,-2.03c0.535,-0.484 1.305,-0.369 1.72,0.262l6.223,9.557l0.099,0.168l0.005,0.015l0.006,0.009l0.005,0.014l0.048,0.11l0.023,0.07l0.013,0.036l0.025,0.094l0.018,0.101l0.02,0.129l0,0.009l0.003,0.065l0.002,0.044l0,0.071l-0.002,0.053l-0.003,0.059l0,0.009l-0.02,0.136l-0.018,0.1l-0.025,0.095l-0.013,0.029l-0.023,0.068l-0.048,0.118l-0.005,0.006l-0.006,0.012l-0.005,0.015l-0.099,0.174l-6.223,9.547c-0.415,0.635 -1.185,0.756 -1.72,0.263c-0.536,-0.49 -0.633,-1.396 -0.221,-2.033l5.659,-8.68l-5.659,-8.695Z" style="fill:#fff;"/><path d="M67.191,165.973c0.417,-0.631 1.185,-0.746 1.722,-0.262c0.537,0.493 0.636,1.398 0.221,2.03l-5.659,8.695l5.659,8.68c0.415,0.637 0.316,1.543 -0.221,2.033c-0.537,0.493 -1.305,0.372 -1.722,-0.263l-6.218,-9.547l-0.102,-0.174l-0.005,-0.015l-0.008,-0.012l-0.002,-0.006l-0.048,-0.118l-0.026,-0.068l-0.008,-0.029l-0.028,-0.095l-0.02,-0.1l-0.015,-0.136l0,-0.009l-0.005,-0.059l-0.003,-0.053l0,-0.02l0,-0.024l0,-0.027l0.003,-0.044l0.005,-0.065l0,-0.009l0.015,-0.129l0.02,-0.101l0.028,-0.094l0.008,-0.036l0.026,-0.07l0.048,-0.11l0.002,-0.014l0.008,-0.009l0.005,-0.015l0.102,-0.168l6.218,-9.557Z" style="fill:#fff;"/><rect x="153.564" y="250.1" width="83.751" height="79.332" style="fill:#f48244;"/><rect x="345.747" y="250.1" width="183.502" height="79.332" style="fill:#d4ca6f;"/><rect x="345.747" y="114.874" width="183.502" height="123.115" style="fill:#ffcb06;"/><rect x="153.564" y="337.458" width="179.458" height="6.411" style="fill:#929497;"/><rect x="153.564" y="349.133" width="179.458" height="6.411" style="fill:#929497;"/><rect x="153.564" y="360.808" width="179.458" height="6.411" style="fill:#929497;"/><rect x="153.564" y="372.486" width="179.458" height="6.411" style="fill:#929497;"/><rect x="153.564" y="384.161" width="179.458" height="6.411" style="fill:#929497;"/><rect x="153.564" y="395.839" width="179.458" height="6.411" style="fill:#929497;"/><rect x="153.564" y="407.514" width="179.458" height="6.411" style="fill:#929497;"/><rect x="244.961" y="252.965" width="88.062" height="6.408" style="fill:#929497;"/><rect x="244.961" y="264.64" width="88.062" height="6.411" style="fill:#929497;"/><rect x="244.961" y="276.315" width="88.062" height="6.411" style="fill:#929497;"/><rect x="244.961" y="287.993" width="88.062" height="6.408" style="fill:#929497;"/><rect x="244.961" y="299.668" width="88.062" height="6.411" style="fill:#929497;"/><rect x="244.961" y="311.346" width="88.062" height="6.408" style="fill:#929497;"/><rect x="244.961" y="323.021" width="88.062" height="6.411" style="fill:#929497;"/><rect x="345.747" y="337.207" width="88.782" height="80.002" style="fill:#a4cd39;"/><rect x="440.467" y="337.207" width="88.782" height="80.002" style="fill:#46a4ad;"/></g></svg>