<?xml version="1.0" encoding="UTF-8" standalone="no"?><!DOCTYPE svg PUBLIC "-//W3C//DTD SVG 1.1//EN" "http://www.w3.org/Graphics/SVG/1.1/DTD/svg11.dtd"><svg width="100%" height="100%" viewBox="0 0 30 37" version="1.1" xmlns="http://www.w3.org/2000/svg" xmlns:xlink="http://www.w3.org/1999/xlink" xml:space="preserve" xmlns:serif="http://www.serif.com/" style="fill-rule:evenodd;clip-rule:evenodd;stroke-linejoin:round;stroke-miterlimit:2;"><g><g><g><path d="M6.347,23.177l17.709,0c0.269,0 0.489,-0.215 0.489,-0.479l0,-12.445c0,-0.264 -0.22,-0.479 -0.489,-0.479l-17.709,0c-0.269,0 -0.489,0.215 -0.489,0.479l0,12.445c0,0.264 0.22,0.479 0.489,0.479Z" style="fill:#158a96;fill-rule:nonzero;"/><path d="M6.347,23.177l-0.489,0l0,-0.479c0,0.264 0.22,0.479 0.489,0.479l0,0Zm18.198,-12.924l0,0c0,-0.237 -0.178,-0.435 -0.409,-0.472l0.409,0l0,0.472Zm-18.687,0l0,-0.479l0.476,0c-0.264,0.007 -0.476,0.219 -0.476,0.479Z" style="fill:#cdcccc;fill-rule:nonzero;"/><path d="M6.347,23.177c-0.269,0 -0.489,-0.215 -0.489,-0.479l0,-12.445c0,-0.26 0.212,-0.472 0.476,-0.479l17.802,0.007c0.231,0.037 0.409,0.235 0.409,0.472l-18.198,0l0,12.924" style="fill:#0f6e77;fill-rule:nonzero;"/><path d="M14.341,16.918c-0.178,0 -0.335,-0.124 -0.368,-0.301c-0.037,-0.199 0.097,-0.391 0.301,-0.427c0.889,-0.159 1.874,-0.399 2.772,-0.676c0.198,-0.061 0.408,0.046 0.47,0.239c0.063,0.194 -0.047,0.4 -0.244,0.461c-0.941,0.29 -1.931,0.532 -2.863,0.698l-0.068,0.006Z" style="fill:#d0ecf3;fill-rule:nonzero;"/><path d="M15.621,17.944c-0.028,0 -0.057,-0.003 -0.086,-0.009c-0.201,-0.046 -0.327,-0.244 -0.279,-0.441c0.193,-0.807 0.15,-1.757 -0.113,-2.543c-0.065,-0.192 0.042,-0.399 0.239,-0.463c0.196,-0.063 0.409,0.042 0.473,0.234c0.305,0.908 0.353,2.006 0.131,2.939c-0.041,0.169 -0.195,0.283 -0.365,0.283Z" style="fill:#d0ecf3;fill-rule:nonzero;"/><path d="M19.77,16.138c-0.002,0.691 -0.05,1.394 -0.143,2.108c-0.036,0.277 0.039,0.527 0.197,0.652c0.115,0.092 0.265,0.108 0.447,0.047c1.297,-0.438 1.964,-1.352 1.837,-1.947c-0.125,-0.587 -1.009,-0.906 -2.338,-0.86Zm0.3,3.576c-0.266,0 -0.516,-0.084 -0.719,-0.246c-0.363,-0.289 -0.537,-0.78 -0.468,-1.315c0.263,-2.014 0.148,-3.939 -0.339,-5.723c-0.054,-0.196 0.065,-0.397 0.265,-0.449c0.2,-0.054 0.406,0.063 0.459,0.259c0.278,1.015 0.44,2.073 0.487,3.163c2.485,-0.09 2.986,0.969 3.087,1.446c0.227,1.066 -0.773,2.265 -2.327,2.789c-0.15,0.051 -0.3,0.076 -0.445,0.076Z" style="fill:#d0ecf3;fill-rule:nonzero;"/><path d="M9.174,15.447c-0.301,0 -0.544,0.19 -0.723,0.566c-0.255,0.534 -0.221,1.232 0.081,1.696c0.122,0.188 0.338,0.412 0.671,0.412c0.224,0 0.471,-0.098 0.733,-0.293c0.609,-0.45 0.585,-0.985 0.459,-1.354c-0.195,-0.566 -0.742,-1.027 -1.221,-1.027Zm0.029,3.408c-0.525,0 -0.988,-0.267 -1.303,-0.752c-0.44,-0.674 -0.492,-1.639 -0.129,-2.401c0.41,-0.861 1.055,-0.99 1.403,-0.99c0.802,0 1.633,0.658 1.932,1.529c0.281,0.82 0.013,1.632 -0.717,2.172c-0.396,0.293 -0.795,0.442 -1.186,0.442Z" style="fill:#d0ecf3;fill-rule:nonzero;"/><path d="M12.169,18.219c-0.467,0 -0.809,-0.195 -1.034,-0.391c-0.735,-0.637 -0.985,-1.953 -0.802,-2.858c0.04,-0.198 0.236,-0.329 0.44,-0.288c0.203,0.039 0.336,0.232 0.295,0.431c-0.139,0.689 0.054,1.724 0.564,2.166c0.245,0.212 0.54,0.258 0.904,0.143c0.197,-0.065 0.408,0.042 0.472,0.234c0.065,0.193 -0.042,0.4 -0.239,0.463c-0.22,0.07 -0.419,0.1 -0.6,0.1Z" style="fill:#d0ecf3;fill-rule:nonzero;"/><path d="M23.156,23.521l-1.688,0c-0.222,0 -0.41,-0.145 -0.469,-0.344l2.627,0c-0.06,0.199 -0.247,0.344 -0.47,0.344Z" style="fill:#cdcccc;fill-rule:nonzero;"/><path d="M23.626,23.177l-2.627,0c-0.013,-0.043 -0.02,-0.088 -0.02,-0.135l0,-0.423c0,-0.264 0.219,-0.478 0.489,-0.478l1.688,0c0.271,0 0.49,0.214 0.49,0.478l0,0.423c0,0.047 -0.007,0.092 -0.02,0.135Z" style="fill:#0f6e77;fill-rule:nonzero;"/><path d="M6.347,9.774c-0.269,0 -0.489,0.215 -0.489,0.479l0,12.445c0,0.264 0.22,0.479 0.489,0.479l17.709,0c0.269,0 0.489,-0.215 0.489,-0.479l0,-12.445c0,-0.264 -0.22,-0.479 -0.489,-0.479l-17.709,0Zm17.709,14.361l-17.709,0c-0.809,0 -1.468,-0.645 -1.468,-1.437l0,-12.445c0,-0.792 0.659,-1.437 1.468,-1.437l17.709,0c0.809,0 1.467,0.645 1.467,1.437l0,12.445c0,0.792 -0.658,1.437 -1.467,1.437Z" style="fill:#fcc012;fill-rule:nonzero;"/><path d="M20.621,22.269c0,-0.265 0.219,-0.479 0.489,-0.479l1.689,0c0.27,0 0.489,0.214 0.489,0.479l0,0.422c0,0.266 -0.219,0.479 -0.489,0.479l-1.689,0c-0.27,0 -0.489,-0.213 -0.489,-0.479l0,-0.422Z" style="fill:#fce69f;fill-rule:nonzero;"/></g><path d="M8.745,6.804l1.105,4.817c0.126,0.55 4.266,0.837 5.37,0.584c1.103,-0.253 4.705,-2.315 4.579,-2.865l-1.105,-4.817l-9.949,2.281Z" style="fill:#144f78;fill-rule:nonzero;"/><path d="M14.662,9.773l-5.405,-0.737l-0.134,-0.586l5.404,0.737l4.545,-3.018l0.134,0.586l-4.544,3.018Z" style="fill:#0c3754;fill-rule:nonzero;"/><path d="M12.795,1.629l-8.558,5.684l10.179,1.389l8.558,-5.684l-10.179,-1.389Z" style="fill:#144f78;fill-rule:nonzero;"/><path d="M14.416,8.702l-10.179,-1.389l0.111,0.486l10.179,1.388l8.559,-5.684l-0.112,-0.485l-8.558,5.684Z" style="fill:#467394;fill-rule:nonzero;"/><path d="M20.18,8.29l-0.034,0.008l-0.349,0.08l-0.034,0.008c0,0 -0.62,1.505 0.281,2.666l1.045,-0.24c0.305,-1.437 -0.909,-2.522 -0.909,-2.522Z" style="fill:#fcc012;fill-rule:nonzero;"/><path d="M20.847,10.643c-0.005,-0.124 -0.049,-0.264 -0.075,-0.415c-0.014,-0.076 -0.033,-0.153 -0.06,-0.229c-0.025,-0.076 -0.05,-0.154 -0.075,-0.231c-0.022,-0.078 -0.058,-0.151 -0.088,-0.225c-0.031,-0.072 -0.061,-0.143 -0.09,-0.213c-0.07,-0.131 -0.127,-0.259 -0.189,-0.358c-0.116,-0.206 -0.209,-0.328 -0.209,-0.328c0,0 0.085,0.131 0.184,0.345c0.055,0.104 0.102,0.236 0.161,0.371c0.024,0.07 0.049,0.142 0.074,0.216c0.024,0.073 0.054,0.146 0.07,0.224c0.018,0.077 0.037,0.153 0.055,0.228c0.022,0.075 0.034,0.149 0.042,0.222c0.015,0.145 0.047,0.279 0.043,0.394c0,0.107 0,0.194 0.001,0.26l0.174,-0.04c-0.005,-0.063 -0.011,-0.135 -0.018,-0.221Z" style="fill:#fdd96f;fill-rule:nonzero;"/><path d="M20.329,10.726c-0.053,-0.101 -0.083,-0.236 -0.132,-0.373c-0.025,-0.068 -0.047,-0.141 -0.06,-0.217c-0.016,-0.076 -0.033,-0.153 -0.049,-0.23c-0.02,-0.077 -0.025,-0.156 -0.036,-0.232c-0.009,-0.077 -0.018,-0.153 -0.027,-0.227c-0.006,-0.147 -0.021,-0.286 -0.016,-0.403c-0.004,-0.237 0.015,-0.391 0.015,-0.391c0,0 -0.031,0.15 -0.045,0.385c-0.013,0.117 -0.008,0.257 -0.013,0.405c0.003,0.076 0.007,0.153 0.01,0.232c0.006,0.079 0.005,0.16 0.019,0.24c0.012,0.081 0.023,0.161 0.034,0.241c0.008,0.08 0.025,0.157 0.045,0.231c0.042,0.148 0.064,0.294 0.113,0.407c0.032,0.081 0.058,0.148 0.081,0.206l0.174,-0.039c-0.028,-0.06 -0.066,-0.138 -0.113,-0.235Z" style="fill:#fdd96f;fill-rule:nonzero;"/><path d="M21.099,10.388c-0.004,-0.078 -0.016,-0.159 -0.036,-0.241c-0.014,-0.084 -0.04,-0.167 -0.069,-0.25c-0.023,-0.084 -0.064,-0.163 -0.097,-0.244c-0.149,-0.317 -0.36,-0.576 -0.525,-0.75c-0.168,-0.172 -0.292,-0.263 -0.292,-0.263c0,0 0.119,0.102 0.273,0.289c0.153,0.187 0.342,0.46 0.462,0.771c0.026,0.078 0.059,0.154 0.075,0.234c0.021,0.079 0.04,0.155 0.047,0.232c0.014,0.075 0.02,0.148 0.018,0.216c0.003,0.069 0.004,0.134 -0.005,0.192c-0.007,0.118 -0.028,0.211 -0.046,0.275l-0.002,0.006c0.056,-0.013 0.118,-0.027 0.187,-0.043c0.006,-0.03 0.008,-0.059 0.013,-0.089c0.003,-0.038 0.006,-0.074 0.006,-0.118c0.005,-0.067 0,-0.14 -0.009,-0.217Z" style="fill:#fdd96f;fill-rule:nonzero;"/><path d="M20.043,8.648l0.438,2.304c0.039,-0.009 0.093,-0.022 0.17,-0.039l-0.608,-2.265Z" style="fill:#fdd96f;fill-rule:nonzero;"/><path d="M20.226,11.005c-0.044,-0.05 -0.103,-0.125 -0.161,-0.228c-0.034,-0.049 -0.061,-0.107 -0.088,-0.17c-0.032,-0.062 -0.058,-0.129 -0.079,-0.203c-0.026,-0.072 -0.043,-0.149 -0.058,-0.229c-0.021,-0.079 -0.023,-0.162 -0.034,-0.244c-0.028,-0.332 0.023,-0.66 0.079,-0.895c0.058,-0.235 0.12,-0.379 0.12,-0.379c0,0 -0.072,0.136 -0.148,0.364c-0.073,0.228 -0.15,0.554 -0.145,0.904c0.005,0.087 0.002,0.176 0.018,0.262c0.011,0.087 0.023,0.173 0.047,0.254c0.018,0.084 0.042,0.161 0.072,0.233c0.026,0.074 0.053,0.142 0.087,0.199c0.019,0.04 0.038,0.072 0.057,0.105c0.018,0.025 0.032,0.05 0.051,0.074c0.068,-0.016 0.13,-0.03 0.186,-0.043l-0.004,-0.004Z" style="fill:#fdd96f;fill-rule:nonzero;"/><path d="M19.499,8.447c-0.06,-0.262 0.103,-0.521 0.364,-0.581c0.261,-0.06 0.521,0.103 0.581,0.364c0.06,0.261 -0.103,0.521 -0.364,0.581c-0.261,0.059 -0.521,-0.103 -0.581,-0.364Z" style="fill:#fdd96f;fill-rule:nonzero;"/><path d="M13.808,6.048c-0.822,0.189 -1.58,-0.054 -1.691,-0.541c-0.112,-0.488 0.464,-1.035 1.286,-1.224c0.823,-0.188 1.58,0.054 1.692,0.541c0.111,0.487 -0.465,1.036 -1.287,1.224Z" style="fill:#0c3754;fill-rule:nonzero;"/><path d="M15.105,5.009c-0.017,0.157 -0.097,0.314 -0.226,0.459l-0.001,0.026l4.247,0.264l0.604,2.636l0.485,-0.111l-0.687,-2.999l-4.422,-0.275Z" style="fill:#fcc012;fill-rule:nonzero;"/><path d="M12.089,5.384c-0.097,-0.42 0.399,-0.891 1.107,-1.053c0.708,-0.163 1.36,0.046 1.456,0.466c0.097,0.419 -0.399,0.891 -1.107,1.053c-0.708,0.162 -1.36,-0.046 -1.456,-0.466Z" style="fill:#144f78;fill-rule:nonzero;"/></g><g transform="matrix(0.215379,0,0,0.250744,-3.11738,-17.4353)"><g transform="matrix(20.8333,0,0,20.8333,15.3942,186.19)"><path d="M-0.033,-0.134c-0.009,0.003 -0.013,0.01 -0.002,0.023c0.141,0.17 0.315,0.151 0.375,0.082c0.044,-0.051 0.049,-0.097 0.011,-0.124c-0.056,-0.04 -0.184,-0.093 -0.181,-0.158c0.005,-0.125 0.251,-0.278 0.285,-0.243c0.024,0.025 -0.051,0.108 -0.072,0.156c-0.021,0.047 -0.009,0.078 0.01,0.097c0.011,0.011 0.017,0.006 0.022,-0.003c0.014,-0.025 0.043,-0.076 0.069,-0.111c0.015,-0.021 0.039,-0.06 0.029,-0.1c-0.007,-0.028 -0.025,-0.061 -0.05,-0.084c-0.033,-0.03 -0.081,-0.022 -0.129,-0.002c-0.089,0.038 -0.244,0.155 -0.244,0.292c0,0.103 0.158,0.165 0.211,0.21c0.014,0.012 0.019,0.033 0.002,0.052c-0.013,0.011 -0.034,0.018 -0.062,0.018c-0.065,0 -0.133,-0.052 -0.173,-0.084c-0.027,-0.022 -0.068,-0.031 -0.101,-0.021Z" style="fill-rule:nonzero;"/></g><g transform="matrix(20.8333,0,0,20.8333,24.3525,186.19)"><path d="M0.232,-0.459c-0.013,-0.027 -0.042,-0.039 -0.058,-0.022c-0.016,0.017 -0.021,0.047 -0.005,0.074c0.015,0.026 0.043,0.029 0.056,0.015c0.013,-0.014 0.02,-0.041 0.007,-0.067Zm-0.163,0.474c0.056,0 0.119,-0.042 0.149,-0.104c0.012,-0.025 0.015,-0.046 0.007,-0.062c-0.004,-0.008 -0.011,-0.009 -0.016,0c-0.03,0.069 -0.085,0.135 -0.13,0.137c-0.032,0.002 -0.034,-0.037 -0.01,-0.095c0.021,-0.05 0.063,-0.118 0.084,-0.162c0.024,-0.05 0.016,-0.093 0.001,-0.109c-0.008,-0.009 -0.015,-0.006 -0.024,0.006c-0.037,0.052 -0.103,0.17 -0.128,0.243c-0.028,0.082 -0.009,0.146 0.067,0.146Z" style="fill-rule:nonzero;"/></g><g transform="matrix(20.8333,0,0,20.8333,28.3734,186.19)"><path d="M0.039,-0.164c-0.001,-0.008 -0.001,-0.016 -0.002,-0.024c-0.001,-0.016 -0.009,-0.02 -0.021,-0.01c-0.034,0.028 -0.037,0.094 -0.013,0.139c0.034,0.062 0.09,0.077 0.148,0.075c0.071,-0.003 0.139,-0.041 0.177,-0.11c0.017,-0.031 0.018,-0.057 0.014,-0.066c-0.004,-0.008 -0.014,-0.011 -0.019,0c-0.025,0.054 -0.067,0.114 -0.134,0.139c0.036,-0.024 0.043,-0.066 0.045,-0.105c0.003,-0.069 -0.016,-0.147 -0.009,-0.239c0.004,-0.007 0.007,-0.013 0.011,-0.019c0.013,-0.023 0.018,-0.034 0.008,-0.044c-0.009,-0.009 -0.032,-0.005 -0.054,0.015c-0.021,0.019 -0.031,0.038 -0.036,0.077c-0.029,0.051 -0.074,0.116 -0.115,0.172Zm0.113,-0.108c0.004,0.08 0.019,0.237 -0.027,0.251c-0.033,0.01 -0.062,-0.031 -0.077,-0.089c0.038,-0.054 0.075,-0.109 0.104,-0.162Z" style="fill-rule:nonzero;"/></g><g transform="matrix(20.8333,0,0,20.8333,34.665,186.19)"><path d="M0.125,-0.389c-0.043,0.079 -0.085,0.163 -0.106,0.213c-0.048,0.115 0.005,0.189 0.071,0.191c0.08,0.003 0.146,-0.085 0.159,-0.114c0.01,-0.023 0.015,-0.041 0.01,-0.057c-0.004,-0.014 -0.015,-0.012 -0.021,0c-0.037,0.075 -0.094,0.146 -0.139,0.144c-0.042,-0.002 -0.053,-0.064 -0.02,-0.137c0.038,-0.084 0.095,-0.181 0.134,-0.248c0.025,-0.004 0.056,-0.007 0.078,-0.004c0.015,0 0.019,-0.007 0.012,-0.019c-0.008,-0.013 -0.023,-0.031 -0.062,-0.03c0.024,-0.052 0.024,-0.085 0.013,-0.113c-0.005,-0.012 -0.015,-0.013 -0.024,0c-0.017,0.022 -0.045,0.069 -0.076,0.124c-0.027,0.003 -0.055,0.005 -0.083,0.004c-0.015,-0.001 -0.021,0.006 -0.011,0.02c0.008,0.011 0.031,0.026 0.065,0.026Z" style="fill-rule:nonzero;"/></g><g transform="matrix(20.8333,0,0,20.8333,38.7067,186.19)"><path d="M0.092,-0.171c0.07,0.057 0.137,0.031 0.186,-0.029c0.042,-0.051 0.05,-0.112 0.032,-0.136c-0.016,-0.022 -0.034,-0.037 -0.059,-0.052c-0.05,-0.029 -0.152,0.023 -0.217,0.152c-0.065,0.129 -0.021,0.254 0.106,0.252c0.077,-0.001 0.154,-0.047 0.196,-0.108c0.018,-0.026 0.021,-0.054 0.017,-0.062c-0.004,-0.009 -0.012,-0.009 -0.017,-0.001c-0.043,0.066 -0.116,0.146 -0.199,0.142c-0.053,-0.003 -0.077,-0.066 -0.045,-0.158Zm0.009,-0.022c0.002,-0.005 0.005,-0.011 0.008,-0.017c0.047,-0.095 0.13,-0.155 0.151,-0.138c0.014,0.011 -0.008,0.063 -0.04,0.105c-0.029,0.038 -0.07,0.081 -0.119,0.05Z" style="fill-rule:nonzero;"/></g><g transform="matrix(20.8333,0,0,20.8333,45.3734,186.19)"><path d="M0.158,-0.284c0.015,-0.04 0.018,-0.079 0.001,-0.107c-0.006,-0.01 -0.014,-0.011 -0.021,0c-0.063,0.094 -0.136,0.235 -0.157,0.298c-0.017,0.051 -0.012,0.084 0.01,0.103c0.009,0.008 0.015,0.004 0.019,-0.005c0.04,-0.094 0.088,-0.187 0.147,-0.251c0.064,-0.07 0.113,-0.097 0.125,-0.092c0.02,0.007 -0.088,0.145 -0.121,0.228c-0.029,0.072 -0.015,0.111 0.002,0.126c0.009,0.01 0.017,0.007 0.023,-0.005c0.042,-0.094 0.091,-0.19 0.174,-0.273c0.065,-0.065 0.099,-0.076 0.107,-0.073c0.015,0.005 -0.074,0.117 -0.111,0.2c-0.037,0.082 -0.005,0.151 0.082,0.151c0.058,0 0.122,-0.05 0.15,-0.107c0.011,-0.023 0.014,-0.056 0.009,-0.063c-0.005,-0.007 -0.013,-0.007 -0.018,0.002c-0.039,0.07 -0.084,0.136 -0.125,0.137c-0.036,0.001 -0.05,-0.045 -0.022,-0.102c0.025,-0.05 0.074,-0.116 0.092,-0.161c0.02,-0.05 0.012,-0.109 -0.024,-0.11c-0.033,-0.001 -0.1,0.046 -0.148,0.093c0.013,-0.044 -0.005,-0.097 -0.039,-0.098c-0.036,-0.001 -0.111,0.058 -0.155,0.109Z" style="fill-rule:nonzero;"/></g><g transform="matrix(20.8333,0,0,20.8333,57.1442,186.19)"><path d="M0.324,-0.325c0.002,-0.039 -0.018,-0.072 -0.061,-0.072c-0.05,0 -0.129,0.045 -0.21,0.163c-0.083,0.121 -0.064,0.248 0.029,0.248c0.048,0 0.093,-0.037 0.125,-0.078c0,0.047 0.028,0.079 0.082,0.082c0.055,0.003 0.118,-0.052 0.144,-0.107c0.013,-0.028 0.013,-0.053 0.009,-0.062c-0.004,-0.009 -0.011,-0.008 -0.016,0.001c-0.035,0.069 -0.09,0.137 -0.131,0.139c-0.034,0.002 -0.033,-0.041 -0.008,-0.097c0.024,-0.053 0.074,-0.128 0.096,-0.173c0.024,-0.05 0.016,-0.093 0.001,-0.111c-0.007,-0.009 -0.015,-0.007 -0.024,0.006c-0.011,0.016 -0.023,0.037 -0.036,0.061Zm-0.087,0.155c-0.051,0.088 -0.103,0.152 -0.144,0.151c-0.039,-0.001 -0.026,-0.089 0.027,-0.175c0.055,-0.089 0.128,-0.154 0.16,-0.151c0.029,0.003 0.02,0.065 -0.043,0.175Z" style="fill-rule:nonzero;"/></g><g transform="matrix(20.8333,0,0,20.8333,70.2067,186.19)"><path d="M0.277,-0.108c0.05,-0.106 0.146,-0.271 0.194,-0.357c0.042,-0.075 0.045,-0.118 0.031,-0.151c-0.005,-0.013 -0.014,-0.014 -0.024,0c-0.036,0.051 -0.112,0.187 -0.166,0.29c0.001,-0.037 -0.019,-0.068 -0.06,-0.068c-0.05,0 -0.13,0.045 -0.209,0.161c-0.082,0.12 -0.064,0.247 0.029,0.247c0.047,0 0.092,-0.037 0.124,-0.077c0,0.047 0.027,0.077 0.081,0.08c0.055,0.003 0.117,-0.05 0.144,-0.105c0.013,-0.027 0.012,-0.053 0.008,-0.062c-0.004,-0.008 -0.011,-0.008 -0.016,0.001c-0.035,0.069 -0.089,0.136 -0.13,0.138c-0.034,0.002 -0.033,-0.039 -0.006,-0.097Zm-0.009,-0.235c0.029,0.001 0.014,0.064 -0.044,0.175c-0.047,0.091 -0.101,0.15 -0.141,0.149c-0.039,-0.001 -0.028,-0.088 0.026,-0.174c0.055,-0.088 0.128,-0.151 0.159,-0.15Z" style="fill-rule:nonzero;"/></g><g transform="matrix(20.8333,0,0,20.8333,78.3525,186.19)"><path d="M0.092,-0.171c0.07,0.057 0.137,0.031 0.186,-0.029c0.042,-0.051 0.05,-0.112 0.032,-0.136c-0.016,-0.022 -0.034,-0.037 -0.059,-0.052c-0.05,-0.029 -0.152,0.023 -0.217,0.152c-0.065,0.129 -0.021,0.254 0.106,0.252c0.077,-0.001 0.154,-0.047 0.196,-0.108c0.018,-0.026 0.021,-0.054 0.017,-0.062c-0.004,-0.009 -0.012,-0.009 -0.017,-0.001c-0.043,0.066 -0.116,0.146 -0.199,0.142c-0.053,-0.003 -0.077,-0.066 -0.045,-0.158Zm0.009,-0.022c0.002,-0.005 0.005,-0.011 0.008,-0.017c0.047,-0.095 0.13,-0.155 0.151,-0.138c0.014,0.011 -0.008,0.063 -0.04,0.105c-0.029,0.038 -0.07,0.081 -0.119,0.05Z" style="fill-rule:nonzero;"/></g><g transform="matrix(20.8333,0,0,20.8333,89.6025,186.19)"><path d="M0.313,-0.157c-0.003,0.03 -0.004,0.056 -0.004,0.076c0.001,0.057 0.017,0.082 0.037,0.091c0.009,0.004 0.015,0.001 0.015,-0.009c0.002,-0.053 0.008,-0.108 0.015,-0.16c0.017,0.001 0.031,0.003 0.043,0.006c0.009,0.003 0.013,0 0.011,-0.009c-0.004,-0.021 -0.015,-0.041 -0.045,-0.051c0.019,-0.11 0.047,-0.212 0.073,-0.291c0.009,-0.027 0.01,-0.049 0,-0.073c-0.01,-0.025 -0.013,-0.027 -0.023,-0.041c-0.01,-0.014 -0.02,-0.014 -0.036,-0.001c-0.106,0.087 -0.245,0.285 -0.323,0.421c-0.016,-0.001 -0.031,-0.003 -0.045,-0.005c-0.015,-0.002 -0.017,0.002 -0.012,0.015c0.003,0.007 0.011,0.022 0.033,0.034c-0.012,0.022 -0.021,0.042 -0.027,0.057c-0.021,0.056 -0.017,0.086 -0.005,0.102c0.005,0.007 0.014,0.007 0.018,-0.002c0.02,-0.044 0.046,-0.093 0.076,-0.144c0.047,0.001 0.128,-0.011 0.199,-0.016Zm-0.161,-0.044c0.076,-0.119 0.167,-0.24 0.243,-0.325c-0.031,0.078 -0.059,0.204 -0.074,0.308c-0.047,0.001 -0.108,0.012 -0.169,0.017Z" style="fill-rule:nonzero;"/></g><g transform="matrix(20.8333,0,0,20.8333,98.8109,186.19)"><path d="M0.068,-0.029c0.014,-0.109 0.034,-0.165 0.052,-0.242c0.014,-0.061 0.009,-0.098 -0.024,-0.126c-0.008,-0.007 -0.016,-0.003 -0.02,0.008c-0.034,0.104 -0.061,0.247 -0.065,0.317c-0.003,0.053 0.011,0.073 0.05,0.092c0.01,0.005 0.015,-0.002 0.02,-0.01c0.096,-0.152 0.187,-0.248 0.237,-0.311c0.032,-0.04 0.044,-0.066 0.041,-0.087c-0.002,-0.013 -0.008,-0.015 -0.019,-0.004c-0.068,0.07 -0.201,0.246 -0.272,0.363Z" style="fill-rule:nonzero;"/></g><g transform="matrix(20.8333,0,0,20.8333,104.644,186.19)"><path d="M0.324,-0.325c0.002,-0.039 -0.018,-0.072 -0.061,-0.072c-0.05,0 -0.129,0.045 -0.21,0.163c-0.083,0.121 -0.064,0.248 0.029,0.248c0.048,0 0.093,-0.037 0.125,-0.078c0,0.047 0.028,0.079 0.082,0.082c0.055,0.003 0.118,-0.052 0.144,-0.107c0.013,-0.028 0.013,-0.053 0.009,-0.062c-0.004,-0.009 -0.011,-0.008 -0.016,0.001c-0.035,0.069 -0.09,0.137 -0.131,0.139c-0.034,0.002 -0.033,-0.041 -0.008,-0.097c0.024,-0.053 0.074,-0.128 0.096,-0.173c0.024,-0.05 0.016,-0.093 0.001,-0.111c-0.007,-0.009 -0.015,-0.007 -0.024,0.006c-0.011,0.016 -0.023,0.037 -0.036,0.061Zm-0.087,0.155c-0.051,0.088 -0.103,0.152 -0.144,0.151c-0.039,-0.001 -0.026,-0.089 0.027,-0.175c0.055,-0.089 0.128,-0.154 0.16,-0.151c0.029,0.003 0.02,0.065 -0.043,0.175Z" style="fill-rule:nonzero;"/></g><g transform="matrix(20.8333,0,0,20.8333,113.123,186.19)"><path d="M0.098,-0.2c0.089,-0.058 0.201,-0.178 0.232,-0.301c0.012,-0.047 0.006,-0.084 -0.023,-0.11c-0.014,-0.013 -0.028,-0.011 -0.043,0.005c-0.102,0.106 -0.216,0.287 -0.253,0.461c-0.023,0.108 0.014,0.156 0.083,0.158c0.08,0.002 0.153,-0.081 0.167,-0.111c0.011,-0.024 0.015,-0.046 0.01,-0.062c-0.004,-0.014 -0.015,-0.013 -0.022,0c-0.039,0.077 -0.109,0.149 -0.157,0.145c-0.045,-0.004 -0.034,-0.087 0.006,-0.185Zm0.018,-0.043c0.007,-0.016 0.015,-0.032 0.024,-0.048c0.069,-0.128 0.143,-0.239 0.156,-0.231c0.013,0.008 -0.043,0.168 -0.18,0.279Z" style="fill-rule:nonzero;"/></g><g transform="matrix(20.8333,0,0,20.8333,117.915,186.19)"><path d="M0.232,-0.459c-0.013,-0.027 -0.042,-0.039 -0.058,-0.022c-0.016,0.017 -0.021,0.047 -0.005,0.074c0.015,0.026 0.043,0.029 0.056,0.015c0.013,-0.014 0.02,-0.041 0.007,-0.067Zm-0.163,0.474c0.056,0 0.119,-0.042 0.149,-0.104c0.012,-0.025 0.015,-0.046 0.007,-0.062c-0.004,-0.008 -0.011,-0.009 -0.016,0c-0.03,0.069 -0.085,0.135 -0.13,0.137c-0.032,0.002 -0.034,-0.037 -0.01,-0.095c0.021,-0.05 0.063,-0.118 0.084,-0.162c0.024,-0.05 0.016,-0.093 0.001,-0.109c-0.008,-0.009 -0.015,-0.006 -0.024,0.006c-0.037,0.052 -0.103,0.17 -0.128,0.243c-0.028,0.082 -0.009,0.146 0.067,0.146Z" style="fill-rule:nonzero;"/></g><g transform="matrix(20.8333,0,0,20.8333,121.998,186.19)"><path d="M0.324,-0.325c0.002,-0.039 -0.018,-0.072 -0.061,-0.072c-0.05,0 -0.129,0.045 -0.21,0.163c-0.083,0.121 -0.064,0.248 0.029,0.248c0.048,0 0.093,-0.037 0.125,-0.078c0,0.047 0.028,0.079 0.082,0.082c0.055,0.003 0.118,-0.052 0.144,-0.107c0.013,-0.028 0.013,-0.053 0.009,-0.062c-0.004,-0.009 -0.011,-0.008 -0.016,0.001c-0.035,0.069 -0.09,0.137 -0.131,0.139c-0.034,0.002 -0.033,-0.041 -0.008,-0.097c0.024,-0.053 0.074,-0.128 0.096,-0.173c0.024,-0.05 0.016,-0.093 0.001,-0.111c-0.007,-0.009 -0.015,-0.007 -0.024,0.006c-0.011,0.016 -0.023,0.037 -0.036,0.061Zm-0.087,0.155c-0.051,0.088 -0.103,0.152 -0.144,0.151c-0.039,-0.001 -0.026,-0.089 0.027,-0.175c0.055,-0.089 0.128,-0.154 0.16,-0.151c0.029,0.003 0.02,0.065 -0.043,0.175Z" style="fill-rule:nonzero;"/></g><g transform="matrix(20.8333,0,0,20.8333,130.478,186.19)"><path d="M0.066,0c-0.008,0.013 -0.016,0.026 -0.019,0.033c-0.004,0.01 -0.005,0.016 0.005,0.027c0.009,0.01 0.016,0.012 0.029,0.009c0.011,-0.003 0.023,-0.005 0.027,0.003c0.004,0.007 -0.021,0.026 -0.064,0.023c-0.007,0 -0.012,0.004 -0.006,0.013c0.011,0.017 0.029,0.024 0.044,0.024c0.017,0 0.04,-0.009 0.05,-0.028c0.006,-0.012 0.01,-0.022 -0.001,-0.042c-0.009,-0.016 -0.02,-0.025 -0.036,-0.026c0.002,-0.005 0.006,-0.014 0.012,-0.023c0.009,0.001 0.019,0.002 0.029,0.002c0.076,-0.001 0.155,-0.05 0.193,-0.109c0.017,-0.027 0.021,-0.052 0.018,-0.06c-0.004,-0.01 -0.013,-0.009 -0.018,-0.001c-0.041,0.063 -0.113,0.143 -0.197,0.142c-0.059,-0.001 -0.08,-0.084 -0.025,-0.197c0.045,-0.091 0.12,-0.155 0.137,-0.141c0.014,0.011 -0.016,0.054 -0.027,0.09c-0.014,0.045 0,0.075 0.024,0.087c0.013,0.007 0.017,0.004 0.021,-0.008c0.02,-0.054 0.06,-0.107 0.039,-0.149c-0.012,-0.023 -0.028,-0.039 -0.055,-0.055c-0.05,-0.03 -0.151,0.024 -0.215,0.15c-0.051,0.101 -0.035,0.2 0.035,0.236Z" style="fill-rule:nonzero;"/></g><g transform="matrix(20.8333,0,0,20.8333,136.936,186.19)"><path d="M0.324,-0.325c0.002,-0.039 -0.018,-0.072 -0.061,-0.072c-0.05,0 -0.129,0.045 -0.21,0.163c-0.083,0.121 -0.064,0.248 0.029,0.248c0.048,0 0.093,-0.037 0.125,-0.078c0,0.047 0.028,0.079 0.082,0.082c0.055,0.003 0.118,-0.052 0.144,-0.107c0.013,-0.028 0.013,-0.053 0.009,-0.062c-0.004,-0.009 -0.011,-0.008 -0.016,0.001c-0.035,0.069 -0.09,0.137 -0.131,0.139c-0.034,0.002 -0.033,-0.041 -0.008,-0.097c0.024,-0.053 0.074,-0.128 0.096,-0.173c0.024,-0.05 0.016,-0.093 0.001,-0.111c-0.007,-0.009 -0.015,-0.007 -0.024,0.006c-0.011,0.016 -0.023,0.037 -0.036,0.061Zm-0.087,0.155c-0.051,0.088 -0.103,0.152 -0.144,0.151c-0.039,-0.001 -0.026,-0.089 0.027,-0.175c0.055,-0.089 0.128,-0.154 0.16,-0.151c0.029,0.003 0.02,0.065 -0.043,0.175Zm-0.01,-0.272c-0.003,0.008 0.001,0.013 0.01,0.008c0.046,-0.024 0.095,0.015 0.15,0.001c0.023,-0.006 0.04,-0.02 0.05,-0.044c0.005,-0.011 -0.001,-0.014 -0.01,-0.01c-0.055,0.027 -0.095,-0.01 -0.141,-0.002c-0.029,0.005 -0.053,0.029 -0.059,0.047Z" style="fill-rule:nonzero;"/></g><g transform="matrix(20.8333,0,0,20.8333,145.415,186.19)"><path d="M0.342,-0.215c0.004,-0.005 0.004,-0.01 -0.003,-0.01c-0.008,0 -0.014,0.002 -0.02,0.002c0.001,-0.008 0.001,-0.015 0.002,-0.023c0.006,-0.072 -0.024,-0.079 -0.047,-0.11c-0.02,-0.027 -0.037,-0.036 -0.068,-0.034c-0.06,0.004 -0.121,0.062 -0.159,0.13c-0.045,0.08 -0.06,0.167 -0.016,0.225c0.04,0.052 0.09,0.056 0.126,0.044c0.074,-0.025 0.137,-0.126 0.158,-0.211c0.01,-0.001 0.02,-0.005 0.027,-0.013Zm-0.086,-0.027c-0.016,-0.015 -0.027,-0.044 -0.022,-0.071c0.005,-0.029 0.025,-0.035 0.03,-0.003c0.003,0.018 0,0.043 -0.008,0.074Zm-0.007,0.027c-0.008,0.024 -0.02,0.052 -0.035,0.08c-0.049,0.092 -0.11,0.127 -0.138,0.104c-0.026,-0.022 -0.011,-0.114 0.031,-0.19c0.021,-0.038 0.05,-0.071 0.077,-0.094c0.001,0.037 0.025,0.072 0.046,0.088c0.006,0.005 0.012,0.009 0.019,0.012Z" style="fill-rule:nonzero;"/></g><g transform="matrix(20.8333,0,0,20.8333,32.8629,205.001)"><path d="M0.277,-0.108c0.05,-0.106 0.146,-0.271 0.194,-0.357c0.042,-0.075 0.045,-0.118 0.031,-0.151c-0.005,-0.013 -0.014,-0.014 -0.024,0c-0.036,0.051 -0.112,0.187 -0.166,0.29c0.001,-0.037 -0.019,-0.068 -0.06,-0.068c-0.05,0 -0.13,0.045 -0.209,0.161c-0.082,0.12 -0.064,0.247 0.029,0.247c0.047,0 0.092,-0.037 0.124,-0.077c0,0.047 0.027,0.077 0.081,0.08c0.055,0.003 0.117,-0.05 0.144,-0.105c0.013,-0.027 0.012,-0.053 0.008,-0.062c-0.004,-0.008 -0.011,-0.008 -0.016,0.001c-0.035,0.069 -0.089,0.136 -0.13,0.138c-0.034,0.002 -0.033,-0.039 -0.006,-0.097Zm-0.009,-0.235c0.029,0.001 0.014,0.064 -0.044,0.175c-0.047,0.091 -0.101,0.15 -0.141,0.149c-0.039,-0.001 -0.028,-0.088 0.026,-0.174c0.055,-0.088 0.128,-0.151 0.159,-0.15Z" style="fill-rule:nonzero;"/></g><g transform="matrix(20.8333,0,0,20.8333,41.0088,205.001)"><path d="M0.092,-0.171c0.07,0.057 0.137,0.031 0.186,-0.029c0.042,-0.051 0.05,-0.112 0.032,-0.136c-0.016,-0.022 -0.034,-0.037 -0.059,-0.052c-0.05,-0.029 -0.152,0.023 -0.217,0.152c-0.065,0.129 -0.021,0.254 0.106,0.252c0.077,-0.001 0.154,-0.047 0.196,-0.108c0.018,-0.026 0.021,-0.054 0.017,-0.062c-0.004,-0.009 -0.012,-0.009 -0.017,-0.001c-0.043,0.066 -0.116,0.146 -0.199,0.142c-0.053,-0.003 -0.077,-0.066 -0.045,-0.158Zm0.009,-0.022c0.002,-0.005 0.005,-0.011 0.008,-0.017c0.047,-0.095 0.13,-0.155 0.151,-0.138c0.014,0.011 -0.008,0.063 -0.04,0.105c-0.029,0.038 -0.07,0.081 -0.119,0.05Z" style="fill-rule:nonzero;"/></g><g transform="matrix(20.8333,0,0,20.8333,52.2588,205.001)"><path d="M0.313,-0.157c-0.003,0.03 -0.004,0.056 -0.004,0.076c0.001,0.057 0.017,0.082 0.037,0.091c0.009,0.004 0.015,0.001 0.015,-0.009c0.002,-0.053 0.008,-0.108 0.015,-0.16c0.017,0.001 0.031,0.003 0.043,0.006c0.009,0.003 0.013,0 0.011,-0.009c-0.004,-0.021 -0.015,-0.041 -0.045,-0.051c0.019,-0.11 0.047,-0.212 0.073,-0.291c0.009,-0.027 0.01,-0.049 0,-0.073c-0.01,-0.025 -0.013,-0.027 -0.023,-0.041c-0.01,-0.014 -0.02,-0.014 -0.036,-0.001c-0.106,0.087 -0.245,0.285 -0.323,0.421c-0.016,-0.001 -0.031,-0.003 -0.045,-0.005c-0.015,-0.002 -0.017,0.002 -0.012,0.015c0.003,0.007 0.011,0.022 0.033,0.034c-0.012,0.022 -0.021,0.042 -0.027,0.057c-0.021,0.056 -0.017,0.086 -0.005,0.102c0.005,0.007 0.014,0.007 0.018,-0.002c0.02,-0.044 0.046,-0.093 0.076,-0.144c0.047,0.001 0.128,-0.011 0.199,-0.016Zm-0.161,-0.044c0.076,-0.119 0.167,-0.24 0.243,-0.325c-0.031,0.078 -0.059,0.204 -0.074,0.308c-0.047,0.001 -0.108,0.012 -0.169,0.017Z" style="fill-rule:nonzero;"/></g><g transform="matrix(20.8333,0,0,20.8333,61.6754,205.001)"><path d="M0.209,-0.004c0.038,-0.023 0.075,-0.071 0.105,-0.137c0.037,-0.082 0.059,-0.171 0.011,-0.222c-0.043,-0.045 -0.102,-0.017 -0.146,0.021c0.001,-0.017 -0.001,-0.032 -0.006,-0.045c-0.005,-0.012 -0.014,-0.014 -0.024,-0.001c-0.063,0.084 -0.231,0.401 -0.261,0.498c-0.019,0.061 -0.014,0.089 0.001,0.11c0.006,0.009 0.013,0.007 0.017,-0.002c0.048,-0.111 0.099,-0.213 0.146,-0.299c0.003,0.025 0.013,0.048 0.034,0.067c0.035,0.032 0.077,0.041 0.141,0.037c0.072,-0.005 0.14,-0.038 0.178,-0.107c0.017,-0.031 0.015,-0.057 0.013,-0.066c-0.002,-0.01 -0.013,-0.014 -0.019,0c-0.032,0.068 -0.092,0.14 -0.19,0.146Zm-0.101,-0.177c0.012,-0.021 0.023,-0.039 0.034,-0.057c0.047,-0.077 0.109,-0.127 0.133,-0.115c0.025,0.012 0.014,0.095 -0.025,0.175c-0.047,0.096 -0.112,0.169 -0.144,0.143c-0.028,-0.023 -0.023,-0.083 0.002,-0.146Z" style="fill-rule:nonzero;"/></g><g transform="matrix(20.8333,0,0,20.8333,69.7796,205.001)"><path d="M0.165,-0.316c0.025,-0.063 0.033,-0.121 0.002,-0.12c-0.037,0.001 -0.124,0.119 -0.067,0.156c-0.037,0.053 -0.104,0.147 -0.127,0.191c-0.027,0.051 -0.027,0.097 0.002,0.127c0.009,0.009 0.015,0.004 0.017,-0.005c0.019,-0.091 0.115,-0.233 0.153,-0.303c0.03,0 0.073,-0.009 0.117,-0.038c-0.04,0.046 -0.098,0.117 -0.12,0.183c-0.025,0.075 0.004,0.141 0.076,0.144c0.053,0.002 0.111,-0.04 0.134,-0.098c0.011,-0.027 0.01,-0.051 0.005,-0.062c-0.004,-0.008 -0.01,-0.007 -0.014,0.001c-0.032,0.072 -0.08,0.134 -0.119,0.132c-0.029,-0.001 -0.041,-0.04 -0.025,-0.092c0.016,-0.052 0.065,-0.115 0.11,-0.166c0.029,-0.033 0.005,-0.077 -0.014,-0.098c-0.007,-0.008 -0.015,-0.006 -0.027,0.002c-0.037,0.026 -0.071,0.042 -0.103,0.046Z" style="fill-rule:nonzero;"/></g><g transform="matrix(20.8333,0,0,20.8333,76.6546,205.001)"><path d="M0.092,-0.171c0.07,0.057 0.137,0.031 0.186,-0.029c0.042,-0.051 0.05,-0.112 0.032,-0.136c-0.016,-0.022 -0.034,-0.037 -0.059,-0.052c-0.05,-0.029 -0.152,0.023 -0.217,0.152c-0.065,0.129 -0.021,0.254 0.106,0.252c0.077,-0.001 0.154,-0.047 0.196,-0.108c0.018,-0.026 0.021,-0.054 0.017,-0.062c-0.004,-0.009 -0.012,-0.009 -0.017,-0.001c-0.043,0.066 -0.116,0.146 -0.199,0.142c-0.053,-0.003 -0.077,-0.066 -0.045,-0.158Zm0.009,-0.022c0.002,-0.005 0.005,-0.011 0.008,-0.017c0.047,-0.095 0.13,-0.155 0.151,-0.138c0.014,0.011 -0.008,0.063 -0.04,0.105c-0.029,0.038 -0.07,0.081 -0.119,0.05Z" style="fill-rule:nonzero;"/></g><g transform="matrix(20.8333,0,0,20.8333,83.3213,205.001)"><path d="M0.16,-0.294c0.011,-0.036 0.012,-0.07 -0.003,-0.095c-0.006,-0.01 -0.014,-0.011 -0.021,0c-0.063,0.093 -0.14,0.232 -0.16,0.295c-0.016,0.05 -0.01,0.083 0.01,0.103c0.009,0.009 0.015,0.005 0.019,-0.004c0.043,-0.094 0.087,-0.19 0.146,-0.254c0.064,-0.07 0.122,-0.098 0.132,-0.094c0.018,0.008 -0.07,0.114 -0.103,0.212c-0.029,0.087 -0.009,0.149 0.076,0.149c0.058,0 0.121,-0.051 0.148,-0.107c0.014,-0.029 0.016,-0.052 0.009,-0.063c-0.005,-0.008 -0.012,-0.008 -0.017,0.001c-0.038,0.07 -0.087,0.136 -0.128,0.138c-0.036,0.002 -0.042,-0.045 -0.016,-0.103c0.023,-0.052 0.072,-0.126 0.093,-0.17c0.025,-0.052 -0.006,-0.101 -0.039,-0.106c-0.033,-0.005 -0.101,0.05 -0.146,0.098Z" style="fill-rule:nonzero;"/></g><g transform="matrix(20.8333,0,0,20.8333,91.3213,205.001)"><path d="M0.277,-0.108c0.05,-0.106 0.146,-0.271 0.194,-0.357c0.042,-0.075 0.045,-0.118 0.031,-0.151c-0.005,-0.013 -0.014,-0.014 -0.024,0c-0.036,0.051 -0.112,0.187 -0.166,0.29c0.001,-0.037 -0.019,-0.068 -0.06,-0.068c-0.05,0 -0.13,0.045 -0.209,0.161c-0.082,0.12 -0.064,0.247 0.029,0.247c0.047,0 0.092,-0.037 0.124,-0.077c0,0.047 0.027,0.077 0.081,0.08c0.055,0.003 0.117,-0.05 0.144,-0.105c0.013,-0.027 0.012,-0.053 0.008,-0.062c-0.004,-0.008 -0.011,-0.008 -0.016,0.001c-0.035,0.069 -0.089,0.136 -0.13,0.138c-0.034,0.002 -0.033,-0.039 -0.006,-0.097Zm-0.009,-0.235c0.029,0.001 0.014,0.064 -0.044,0.175c-0.047,0.091 -0.101,0.15 -0.141,0.149c-0.039,-0.001 -0.028,-0.088 0.026,-0.174c0.055,-0.088 0.128,-0.151 0.159,-0.15Z" style="fill-rule:nonzero;"/></g><g transform="matrix(20.8333,0,0,20.8333,99.6754,205.001)"><path d="M0.232,-0.459c-0.013,-0.027 -0.042,-0.039 -0.058,-0.022c-0.016,0.017 -0.021,0.047 -0.005,0.074c0.015,0.026 0.043,0.029 0.056,0.015c0.013,-0.014 0.02,-0.041 0.007,-0.067Zm-0.163,0.474c0.056,0 0.119,-0.042 0.149,-0.104c0.012,-0.025 0.015,-0.046 0.007,-0.062c-0.004,-0.008 -0.011,-0.009 -0.016,0c-0.03,0.069 -0.085,0.135 -0.13,0.137c-0.032,0.002 -0.034,-0.037 -0.01,-0.095c0.021,-0.05 0.063,-0.118 0.084,-0.162c0.024,-0.05 0.016,-0.093 0.001,-0.109c-0.008,-0.009 -0.015,-0.006 -0.024,0.006c-0.037,0.052 -0.103,0.17 -0.128,0.243c-0.028,0.082 -0.009,0.146 0.067,0.146Z" style="fill-rule:nonzero;"/></g><g transform="matrix(20.8333,0,0,20.8333,103.759,205.001)"><path d="M0.205,-0.003c-0.085,0.035 -0.168,0.084 -0.205,0.17c-0.024,0.056 0.002,0.091 0.023,0.117c0.025,0.031 0.046,0.025 0.066,0.014c0.063,-0.035 0.167,-0.186 0.167,-0.293c0.042,-0.018 0.099,-0.052 0.122,-0.095c0.014,-0.026 0.018,-0.054 0.014,-0.062c-0.004,-0.009 -0.014,-0.008 -0.018,0c-0.032,0.061 -0.074,0.105 -0.12,0.129c-0.004,-0.019 -0.012,-0.036 -0.026,-0.049c-0.016,-0.015 -0.039,-0.021 -0.063,-0.02c0.065,-0.041 0.122,-0.09 0.148,-0.134c0.031,-0.053 0.028,-0.099 0.004,-0.133c-0.025,-0.036 -0.054,-0.042 -0.099,-0.036c-0.048,0.006 -0.105,0.034 -0.145,0.073c-0.037,0.036 -0.049,0.082 -0.041,0.108c0.002,0.008 0.009,0.011 0.015,0.003c0.077,-0.096 0.213,-0.167 0.24,-0.133c0.027,0.034 -0.037,0.132 -0.187,0.218c-0.035,0.02 -0.058,0.051 -0.043,0.094c0.003,0.008 0.01,0.006 0.017,0.001c0.05,-0.035 0.111,-0.041 0.125,-0.023c0.009,0.012 0.01,0.03 0.006,0.051Zm-0.009,0.033c-0.034,0.101 -0.138,0.241 -0.156,0.22c-0.019,-0.023 0.023,-0.145 0.156,-0.22Z" style="fill-rule:nonzero;"/></g><g transform="matrix(20.8333,0,0,20.8333,111.113,205.001)"><path d="M0.324,-0.325c0.002,-0.039 -0.018,-0.072 -0.061,-0.072c-0.05,0 -0.129,0.045 -0.21,0.163c-0.083,0.121 -0.064,0.248 0.029,0.248c0.048,0 0.093,-0.037 0.125,-0.078c0,0.047 0.028,0.079 0.082,0.082c0.055,0.003 0.118,-0.052 0.144,-0.107c0.013,-0.028 0.013,-0.053 0.009,-0.062c-0.004,-0.009 -0.011,-0.008 -0.016,0.001c-0.035,0.069 -0.09,0.137 -0.131,0.139c-0.034,0.002 -0.033,-0.041 -0.008,-0.097c0.024,-0.053 0.074,-0.128 0.096,-0.173c0.024,-0.05 0.016,-0.093 0.001,-0.111c-0.007,-0.009 -0.015,-0.007 -0.024,0.006c-0.011,0.016 -0.023,0.037 -0.036,0.061Zm-0.087,0.155c-0.051,0.088 -0.103,0.152 -0.144,0.151c-0.039,-0.001 -0.026,-0.089 0.027,-0.175c0.055,-0.089 0.128,-0.154 0.16,-0.151c0.029,0.003 0.02,0.065 -0.043,0.175Z" style="fill-rule:nonzero;"/></g><g transform="matrix(20.8333,0,0,20.8333,119.592,205.001)"><path d="M0.277,-0.108c0.05,-0.106 0.146,-0.271 0.194,-0.357c0.042,-0.075 0.045,-0.118 0.031,-0.151c-0.005,-0.013 -0.014,-0.014 -0.024,0c-0.036,0.051 -0.112,0.187 -0.166,0.29c0.001,-0.037 -0.019,-0.068 -0.06,-0.068c-0.05,0 -0.13,0.045 -0.209,0.161c-0.082,0.12 -0.064,0.247 0.029,0.247c0.047,0 0.092,-0.037 0.124,-0.077c0,0.047 0.027,0.077 0.081,0.08c0.055,0.003 0.117,-0.05 0.144,-0.105c0.013,-0.027 0.012,-0.053 0.008,-0.062c-0.004,-0.008 -0.011,-0.008 -0.016,0.001c-0.035,0.069 -0.089,0.136 -0.13,0.138c-0.034,0.002 -0.033,-0.039 -0.006,-0.097Zm-0.009,-0.235c0.029,0.001 0.014,0.064 -0.044,0.175c-0.047,0.091 -0.101,0.15 -0.141,0.149c-0.039,-0.001 -0.028,-0.088 0.026,-0.174c0.055,-0.088 0.128,-0.151 0.159,-0.15Z" style="fill-rule:nonzero;"/></g><g transform="matrix(20.8333,0,0,20.8333,127.946,205.001)"><path d="M0.342,-0.215c0.004,-0.005 0.004,-0.01 -0.003,-0.01c-0.008,0 -0.014,0.002 -0.02,0.002c0.001,-0.008 0.001,-0.015 0.002,-0.023c0.006,-0.072 -0.024,-0.079 -0.047,-0.11c-0.02,-0.027 -0.037,-0.036 -0.068,-0.034c-0.06,0.004 -0.121,0.062 -0.159,0.13c-0.045,0.08 -0.06,0.167 -0.016,0.225c0.04,0.052 0.09,0.056 0.126,0.044c0.074,-0.025 0.137,-0.126 0.158,-0.211c0.01,-0.001 0.02,-0.005 0.027,-0.013Zm-0.086,-0.027c-0.016,-0.015 -0.027,-0.044 -0.022,-0.071c0.005,-0.029 0.025,-0.035 0.03,-0.003c0.003,0.018 0,0.043 -0.008,0.074Zm-0.007,0.027c-0.008,0.024 -0.02,0.052 -0.035,0.08c-0.049,0.092 -0.11,0.127 -0.138,0.104c-0.026,-0.022 -0.011,-0.114 0.031,-0.19c0.021,-0.038 0.05,-0.071 0.077,-0.094c0.001,0.037 0.025,0.072 0.046,0.088c0.006,0.005 0.012,0.009 0.019,0.012Z" style="fill-rule:nonzero;"/></g></g></g></svg>